<?xml version="1.0" encoding="iso-8859-1"?>
<!-- Generator: Adobe Illustrator 19.1.0, SVG Export Plug-In . SVG Version: 6.00 Build 0)  -->
<svg version="1.1" id="Capa_1" xmlns="http://www.w3.org/2000/svg" xmlns:xlink="http://www.w3.org/1999/xlink" x="0px" y="0px"
	 viewBox="0 0 67.061 67.061" style="enable-background:new 0 0 67.061 67.061;" xml:space="preserve">
<g>
	<g id="group-26svg">
		<path id="path-1_17_" style="fill:#FF917B;" d="M9.719,41.305C7.312,41.305,6,39.622,6,37.214v-9.81c0-1.204,2.347-2.38,3.55-2.38
			h19.607c1.203,0,1.843-0.776,1.843-1.98V12.143c0-1.204,1.312-2.129,2.515-2.129h17.643c1.904,0,3.605,0.977,4.251,2.77
			l5.52,11.346c0.368,1.022,1.092,1.823,2.038,2.355l2.413,1.714c1.424,0.8,1.62,2.281,1.62,3.915v7.281
			c0,1.199,0.391,1.641-0.807,1.641H63l0,0"/>
		<path id="path-2_17_" style="fill:#EDC951;" d="M28.982,47.169c0,5.899-4.778,10.681-10.672,10.681
			c-5.895,0-10.673-4.782-10.673-10.681c0-5.898,4.778-10.68,10.673-10.68C24.204,36.489,28.982,41.271,28.982,47.169z"/>
		<path id="path-3_17_" style="fill:#EDC951;" d="M62.75,47.169c0,5.899-4.778,10.681-10.672,10.681
			c-5.895,0-10.674-4.782-10.674-10.681c0-5.898,4.779-10.68,10.674-10.68C57.972,36.489,62.75,41.271,62.75,47.169z"/>
		<path id="path-4_17_" style="fill:#53ECF4;" d="M57.236,47.169c0,2.851-2.31,5.163-5.158,5.163c-2.85,0-5.159-2.312-5.159-5.163
			c0-2.85,2.309-5.162,5.159-5.162C54.926,42.007,57.236,44.319,57.236,47.169z"/>
		<path id="path-5_17_" style="fill:#53ECF4;" d="M23.468,47.169c0,2.851-2.309,5.163-5.158,5.163s-5.159-2.312-5.159-5.163
			c0-2.85,2.31-5.162,5.159-5.162S23.468,44.319,23.468,47.169z"/>
		<path id="path-6_16_" style="fill:#53ECF4;" d="M54,18.019H41.318c-1.203,0-3.318,0.551-3.318,1.754v4.361
			c0,1.204,2.115,1.891,3.318,1.891H60l0,0"/>
		<path id="path-7_16_" d="M4.969,41.555C1.857,41.555,0,39.559,0,36.214v-9.811c0-2.006,2.466-4.381,4.55-4.381h19.607
			c0.454,0,0.843-0.05,0.843-0.088V11.142c0-1.995,1.412-4.131,3.515-4.131h17.643c2.494,0,4.748,1.578,5.633,3.935l5.489,11.407
			c0.022,0.046,0.042,0.094,0.06,0.142c0.248,0.689,0.732,1.264,1.362,1.617c0.029,0.017,0.058,0.035,0.087,0.054l2.624,1.72
			C62.605,26.573,64,28.036,64,31.114v7.28c0,0.643,0,1.443-0.61,2.052c-0.594,0.593-1.345,0.59-2.041,0.59H58
			c-0.829,0-1.5-0.672-1.5-1.501c0-0.83,0.671-1.502,1.5-1.502h3v-6.919c0-1.808-0.63-2.372-1.105-2.638
			c-0.029-0.017-0.059-0.035-0.087-0.053l-2.623-1.72c-1.211-0.696-2.145-1.797-2.639-3.112l-5.489-11.407
			c-0.022-0.046-0.042-0.094-0.059-0.142c-0.438-1.213-1.579-2.028-2.84-2.028H28.515C28.366,10.048,28,10.571,28,11.142v10.901
			c0,0.699-0.277,2.981-3.843,2.981H4.55c-0.454,0.039-1.475,0.961-1.552,1.409L3,36.214c0,2.159,0.973,2.339,1.969,2.339
			c0.828,0,1.5,0.672,1.5,1.501C6.469,40.883,5.797,41.555,4.969,41.555z"/>
		<path id="path-8_15_" d="M38,41.036H24c-0.829,0-1.5-0.672-1.5-1.501c0-0.83,0.671-1.502,1.5-1.502h14
			c0.829,0,1.5,0.672,1.5,1.502C39.5,40.364,38.829,41.036,38,41.036z"/>
		<path id="path-9_13_" d="M49.078,58.351c-6.713,0-12.174-5.465-12.174-12.182s5.461-12.182,12.174-12.182
			c6.712,0,12.172,5.465,12.172,12.182S55.79,58.351,49.078,58.351z M49.078,36.989c-5.059,0-9.174,4.118-9.174,9.18
			c0,5.061,4.115,9.179,9.174,9.179c5.058,0,9.172-4.118,9.172-9.179C58.25,41.107,54.136,36.989,49.078,36.989z"/>
		<path id="path-10_11_" d="M50.838,46.169c0,0.973-0.788,1.762-1.76,1.762c-0.973,0-1.761-0.789-1.761-1.762
			s0.788-1.762,1.761-1.762C50.05,44.407,50.838,45.196,50.838,46.169z"/>
		<path id="path-11_11_" d="M49.078,52.832c-3.672,0-6.659-2.989-6.659-6.663s2.987-6.663,6.659-6.663
			c3.671,0,6.658,2.989,6.658,6.663S52.749,52.832,49.078,52.832z M49.078,42.508c-2.018,0-3.659,1.642-3.659,3.661
			s1.641,3.661,3.659,3.661c2.017,0,3.658-1.642,3.658-3.661S51.095,42.508,49.078,42.508z"/>
		<path id="path-12_10_" d="M40.256,56.987c-0.512,0-1.024-0.195-1.414-0.586c-0.781-0.781-0.781-2.048-0.001-2.83l0.369-0.37
			c0.782-0.781,2.048-0.781,2.829,0c0.781,0.782,0.781,2.049,0,2.831l-0.369,0.369C41.28,56.792,40.768,56.987,40.256,56.987z"/>
		<path id="path-13_8_" d="M57.532,39.698c-0.512,0-1.024-0.195-1.414-0.586c-0.781-0.781-0.781-2.048,0-2.83l0.369-0.37
			c0.781-0.781,2.048-0.781,2.828,0c0.782,0.782,0.782,2.049,0,2.831l-0.369,0.369C58.556,39.503,58.044,39.698,57.532,39.698z"/>
		<path id="path-14_7_" d="M57.901,56.987c-0.511,0-1.024-0.195-1.414-0.586l-0.369-0.369c-0.781-0.782-0.781-2.049,0-2.831
			c0.781-0.781,2.047-0.781,2.829,0l0.369,0.37c0.781,0.782,0.781,2.049-0.001,2.83C58.925,56.792,58.413,56.987,57.901,56.987z"/>
		<path id="path-15_6_" d="M40.625,39.698c-0.512,0-1.024-0.195-1.414-0.586l-0.369-0.369c-0.781-0.782-0.781-2.049,0-2.831
			c0.78-0.781,2.048-0.781,2.828,0l0.369,0.37c0.781,0.782,0.781,2.049,0,2.83C41.649,39.503,41.137,39.698,40.625,39.698z"/>
		<path id="path-16_4_" d="M61,48.041h-1c-1.105,0-2-0.897-2-2.002c0-1.105,0.895-2.001,2-2.001h1c1.104,0,2,0.896,2,2.001
			C63,47.144,62.104,48.041,61,48.041z"/>
		<path id="path-17_3_" d="M37,48.041h-1c-1.105,0-2-0.897-2-2.002c0-1.105,0.895-2.001,2-2.001h1c1.104,0,2,0.896,2,2.001
			C39,47.144,38.104,48.041,37,48.041z"/>
		<path id="path-18_2_" d="M48,36.032c-1.105,0-2-0.896-2-2.001V33.03c0-1.105,0.895-2.002,2-2.002c1.104,0,2,0.897,2,2.002v1.001
			C50,35.136,49.104,36.032,48,36.032z"/>
		<path id="path-19_2_" d="M48,60.049c-1.105,0-2-0.896-2-2.001v-1.001c0-1.105,0.895-2.001,2-2.001c1.104,0,2,0.896,2,2.001v1.001
			C50,59.153,49.104,60.049,48,60.049z"/>
		<path id="path-20_2_" d="M15.31,58.351c-6.712,0-12.173-5.465-12.173-12.182S8.598,33.987,15.31,33.987
			c6.711,0,12.172,5.465,12.172,12.182S22.021,58.351,15.31,58.351z M15.31,36.989c-5.059,0-9.173,4.118-9.173,9.18
			c0,5.061,4.114,9.179,9.173,9.179c5.058,0,9.172-4.118,9.172-9.179C24.482,41.107,20.368,36.989,15.31,36.989z"/>
		<path id="path-21_2_" d="M17.07,46.169c0,0.973-0.788,1.762-1.76,1.762c-0.973,0-1.761-0.789-1.761-1.762s0.788-1.762,1.761-1.762
			C16.282,44.407,17.07,45.196,17.07,46.169z"/>
		<path id="path-22_1_" d="M15.31,52.832c-3.672,0-6.659-2.989-6.659-6.663s2.987-6.663,6.659-6.663
			c3.671,0,6.658,2.989,6.658,6.663S18.981,52.832,15.31,52.832z M15.31,42.508c-2.018,0-3.659,1.642-3.659,3.661
			s1.641,3.661,3.659,3.661c2.017,0,3.658-1.642,3.658-3.661S17.327,42.508,15.31,42.508z"/>
		<path id="path-23" d="M6.488,56.987c-0.512,0-1.024-0.195-1.414-0.586c-0.782-0.781-0.782-2.048-0.001-2.83l0.369-0.37
			c0.782-0.781,2.048-0.781,2.829,0c0.781,0.782,0.781,2.049,0,2.831l-0.369,0.369C7.512,56.792,6.999,56.987,6.488,56.987z"/>
		<path id="path-24" d="M23.765,39.698c-0.512,0-1.024-0.195-1.414-0.586c-0.782-0.781-0.782-2.048,0-2.83l0.369-0.37
			c0.78-0.781,2.048-0.781,2.828,0c0.781,0.782,0.781,2.049,0,2.831l-0.369,0.369C24.789,39.503,24.276,39.698,23.765,39.698z"/>
		<path id="path-25" d="M24.134,56.987c-0.512,0-1.024-0.195-1.415-0.586l-0.369-0.369c-0.781-0.782-0.781-2.049,0.001-2.831
			c0.781-0.781,2.047-0.781,2.828,0l0.369,0.37c0.781,0.782,0.781,2.049,0,2.83C25.157,56.792,24.646,56.987,24.134,56.987z"/>
		<path id="path-26" d="M6.857,39.698c-0.512,0-1.024-0.195-1.414-0.586l-0.369-0.369c-0.782-0.782-0.782-2.049,0-2.831
			c0.78-0.781,2.048-0.781,2.828,0l0.369,0.37c0.781,0.782,0.781,2.049,0,2.83C7.881,39.503,7.369,39.698,6.857,39.698z"/>
		<path id="path-27" d="M28,48.041h-1c-1.104,0-2-0.897-2-2.002c0-1.105,0.896-2.001,2-2.001h1c1.104,0,2,0.896,2,2.001
			C30,47.144,29.104,48.041,28,48.041z"/>
		<path id="path-28" d="M4,48.041H3c-1.105,0-2-0.897-2-2.002c0-1.105,0.895-2.001,2-2.001h1c1.104,0,2,0.896,2,2.001
			C6,47.144,5.104,48.041,4,48.041z"/>
		<path id="path-29" d="M15,36.032c-1.105,0-2-0.896-2-2.001V33.03c0-1.105,0.895-2.002,2-2.002c1.104,0,2,0.897,2,2.002v1.001
			C17,35.136,16.104,36.032,15,36.032z"/>
		<path id="path-30" d="M15,60.049c-1.105,0-2-0.896-2-2.001v-1.001c0-1.105,0.895-2.001,2-2.001c1.104,0,2,0.896,2,2.001v1.001
			C17,59.153,16.104,60.049,15,60.049z"/>
		<path id="path-31" d="M61,32.029h-3c-0.829,0-1.5-0.672-1.5-1.501c0-0.829,0.671-1.501,1.5-1.501h3c0.829,0,1.5,0.672,1.5,1.501
			C62.5,31.357,61.829,32.029,61,32.029z"/>
		<path id="path-32" d="M36,32.029h-2c-0.829,0-1.5-0.672-1.5-1.501c0-0.829,0.671-1.501,1.5-1.501h2c0.829,0,1.5,0.672,1.5,1.501
			C37.5,31.357,36.829,32.029,36,32.029z"/>
		<path id="path-33" d="M57,26.025H38.318c-3.897,0-4.318-2.022-4.318-2.892v-4.36c0-2.115,2.321-3.756,4.318-3.756H51
			c0.829,0,1.5,0.672,1.5,1.501c0,0.829-0.671,1.501-1.5,1.501H38.318c-0.521,0-1.256,0.513-1.32,0.776L37,22.879
			c0.192,0.061,0.586,0.144,1.318,0.144H57c0.829,0,1.5,0.672,1.5,1.501C58.5,25.353,57.829,26.025,57,26.025z"/>
	</g>
</g>
<g>
</g>
<g>
</g>
<g>
</g>
<g>
</g>
<g>
</g>
<g>
</g>
<g>
</g>
<g>
</g>
<g>
</g>
<g>
</g>
<g>
</g>
<g>
</g>
<g>
</g>
<g>
</g>
<g>
</g>
</svg>
