<?xml version="1.0" encoding="iso-8859-1"?>
<!-- Generator: Adobe Illustrator 19.1.0, SVG Export Plug-In . SVG Version: 6.00 Build 0)  -->
<svg version="1.1" id="Capa_1" xmlns="http://www.w3.org/2000/svg" xmlns:xlink="http://www.w3.org/1999/xlink" x="0px" y="0px"
	 viewBox="0 0 64 64" style="enable-background:new 0 0 64 64;" xml:space="preserve">
<g>
	<g id="group-20svg">
		<path id="path-1_11_" style="fill:#53ECF4;" d="M57,52.069h3c2.209,0,4-1.792,4-4.002V13.042c0-2.211-1.791-4.003-4-4.003H8
			c-2.2,0-4,1.801-4,4.003v35.025c0,2.201,1.8,4.002,4,4.002h3l0,0"/>
		<path id="path-2_11_" style="fill:#E56A77;" d="M56.921,53.182c0,2.364-1.915,4.28-4.277,4.28c-2.363,0-4.278-1.916-4.278-4.28
			c0-2.364,1.915-4.28,4.278-4.28C55.006,48.902,56.921,50.818,56.921,53.182z"/>
		<path id="path-3_11_" style="fill:#E56A77;" d="M20.714,53.182c0,2.364-1.915,4.28-4.278,4.28c-2.362,0-4.277-1.916-4.277-4.28
			c0-2.364,1.915-4.28,4.277-4.28C18.799,48.902,20.714,50.818,20.714,53.182z"/>
		<path id="path-4_11_" style="fill:#E56A77;" d="M55,17.045c0-1.106-0.896-2.002-2-2.002H14c-1.105,0-2,0.896-2,2.002v6.004
			c0,1.105,0.895,2.001,2,2.001h39c1.104,0,2-0.896,2-2.001V17.045z"/>
		<path id="path-5_11_" style="fill:#E56A77;" d="M55,34.057c0-1.106-0.896-2.002-2-2.002H14c-1.105,0-2,0.896-2,2.002v6.004
			c0,1.105,0.895,2.001,2,2.001h39c1.104,0,2-0.896,2-2.001V34.057z"/>
		<path id="path-6_10_" d="M50.5,25.05h-39c-1.93,0-3.5-1.571-3.5-3.502v-6.004c0-1.931,1.57-3.503,3.5-3.503h39
			c1.93,0,3.5,1.572,3.5,3.503v6.004C54,23.479,52.43,25.05,50.5,25.05z M11.5,15.043c-0.275,0-0.5,0.224-0.5,0.501v6.004
			c0,0.276,0.225,0.5,0.5,0.5h39c0.275,0,0.5-0.224,0.5-0.5v-6.004c0-0.277-0.225-0.501-0.5-0.501H11.5z"/>
		<path id="path-7_10_" d="M50.5,42.062h-39c-1.93,0-3.5-1.571-3.5-3.502v-6.004c0-1.931,1.57-3.503,3.5-3.503h39
			c1.93,0,3.5,1.572,3.5,3.503v6.004C54,40.491,52.43,42.062,50.5,42.062z M11.5,32.055c-0.275,0-0.5,0.225-0.5,0.501v6.004
			c0,0.276,0.225,0.5,0.5,0.5h39c0.275,0,0.5-0.224,0.5-0.5v-6.004c0-0.276-0.225-0.501-0.5-0.501H11.5z"/>
		<path id="path-8_9_" d="M57.5,52.069H54c-0.828,0-1.5-0.671-1.5-1.501c0-0.829,0.672-1.501,1.5-1.501h3.5
			c1.379,0,2.5-1.122,2.5-2.501V11.541c0-1.38-1.121-2.502-2.5-2.502h-52c-1.379,0-2.5,1.122-2.5,2.502v35.025
			c0,1.379,1.121,2.501,2.5,2.501H8c0.828,0,1.5,0.672,1.5,1.501c0,0.83-0.672,1.501-1.5,1.501H5.5c-3.032,0-5.5-2.469-5.5-5.503
			V11.541c0-3.035,2.468-5.504,5.5-5.504h52c3.032,0,5.5,2.469,5.5,5.504v35.025C63,49.6,60.532,52.069,57.5,52.069z"/>
		<path id="path-9_7_" d="M44,52.069H18c-0.828,0-1.5-0.671-1.5-1.501c0-0.829,0.672-1.501,1.5-1.501h26
			c0.828,0,1.5,0.672,1.5,1.501C45.5,51.398,44.828,52.069,44,52.069z"/>
		<path id="path-10_7_" d="M49.644,57.963c-3.186,0-5.778-2.594-5.778-5.782c0-3.187,2.592-5.781,5.778-5.781
			c3.185,0,5.777,2.594,5.777,5.781C55.421,55.369,52.829,57.963,49.644,57.963z M49.644,49.402c-1.532,0-2.778,1.247-2.778,2.779
			c0,1.533,1.246,2.78,2.778,2.78c1.531,0,2.777-1.247,2.777-2.78C52.421,50.649,51.175,49.402,49.644,49.402z"/>
		<path id="path-11_7_" d="M13.436,57.963c-3.185,0-5.777-2.594-5.777-5.782c0-3.187,2.592-5.781,5.777-5.781
			c3.186,0,5.778,2.594,5.778,5.781C19.214,55.369,16.622,57.963,13.436,57.963z M13.436,49.402c-1.531,0-2.777,1.247-2.777,2.779
			c0,1.533,1.246,2.78,2.777,2.78c1.532,0,2.778-1.247,2.778-2.78C16.214,50.649,14.968,49.402,13.436,49.402z"/>
		<path id="path-12_7_" d="M60,43.063h-3c-0.828,0-1.5-0.672-1.5-1.501c0-0.829,0.672-1.501,1.5-1.501h3
			c0.828,0,1.5,0.672,1.5,1.501C61.5,42.391,60.828,43.063,60,43.063z"/>
		<path id="path-13_5_" d="M43.5,40.561c-0.828,0-1.5-0.672-1.5-1.501v-7.005c0-0.829,0.672-1.501,1.5-1.501s1.5,0.672,1.5,1.501
			v7.005C45,39.889,44.328,40.561,43.5,40.561z"/>
		<path id="path-14_4_" d="M36.5,40.561c-0.828,0-1.5-0.672-1.5-1.501v-7.005c0-0.829,0.672-1.501,1.5-1.501s1.5,0.672,1.5,1.501
			v7.005C38,39.889,37.328,40.561,36.5,40.561z"/>
		<path id="path-15_4_" d="M29.5,40.561c-0.828,0-1.5-0.672-1.5-1.501v-7.005c0-0.829,0.672-1.501,1.5-1.501s1.5,0.672,1.5,1.501
			v7.005C31,39.889,30.328,40.561,29.5,40.561z"/>
		<path id="path-16_2_" d="M23.5,40.561c-0.828,0-1.5-0.672-1.5-1.501v-7.005c0-0.829,0.672-1.501,1.5-1.501s1.5,0.672,1.5,1.501
			v7.005C25,39.889,24.328,40.561,23.5,40.561z"/>
		<path id="path-17_1_" d="M15.5,40.561c-0.828,0-1.5-0.672-1.5-1.501v-7.005c0-0.829,0.672-1.501,1.5-1.501
			c0.828,0,1.5,0.672,1.5,1.501v7.005C17,39.889,16.328,40.561,15.5,40.561z"/>
		<path id="path-18" d="M43.5,24.55c-0.828,0-1.5-0.672-1.5-1.501v-8.006c0-0.829,0.672-1.501,1.5-1.501s1.5,0.672,1.5,1.501v8.006
			C45,23.878,44.328,24.55,43.5,24.55z"/>
		<path id="path-19" d="M36.5,24.55c-0.828,0-1.5-0.672-1.5-1.501v-8.006c0-0.829,0.672-1.501,1.5-1.501s1.5,0.672,1.5,1.501v8.006
			C38,23.878,37.328,24.55,36.5,24.55z"/>
		<path id="path-20" d="M29.5,24.55c-0.828,0-1.5-0.672-1.5-1.501v-8.006c0-0.829,0.672-1.501,1.5-1.501s1.5,0.672,1.5,1.501v8.006
			C31,23.878,30.328,24.55,29.5,24.55z"/>
		<path id="path-21" d="M23.5,24.55c-0.828,0-1.5-0.672-1.5-1.501v-8.006c0-0.829,0.672-1.501,1.5-1.501s1.5,0.672,1.5,1.501v8.006
			C25,23.878,24.328,24.55,23.5,24.55z"/>
		<path id="path-22" d="M15.5,24.55c-0.828,0-1.5-0.672-1.5-1.501v-8.006c0-0.829,0.672-1.501,1.5-1.501
			c0.828,0,1.5,0.672,1.5,1.501v8.006C17,23.878,16.328,24.55,15.5,24.55z"/>
	</g>
</g>
<g>
</g>
<g>
</g>
<g>
</g>
<g>
</g>
<g>
</g>
<g>
</g>
<g>
</g>
<g>
</g>
<g>
</g>
<g>
</g>
<g>
</g>
<g>
</g>
<g>
</g>
<g>
</g>
<g>
</g>
</svg>
