<?xml version="1.0"?>
<svg width="65" height="65" xmlns="http://www.w3.org/2000/svg" xmlns:svg="http://www.w3.org/2000/svg">
 <g class="layer">
  <title>Layer 1</title>
  <g id="svg_1">
   <g id="group-39svg">
    <path d="m13.921154,54.954079l-1.976524,0c-2.296426,0 -4.175399,-1.879852 -4.175399,-4.178036l0,-2.857128c0,-3.886261 3.148026,-7.036045 7.030769,-7.036045l38.66923,0c3.882744,0 7.030769,3.149784 7.030769,7.036045l0,3.161209c0,2.131199 -1.741871,3.873955 -3.870438,3.873955l-1.402637,0l0,0" fill="#FF917B" id="path-1_31_"/>
    <path d="m16.787071,40.007542c0,-6.138741 6.630016,-11.114769 14.80768,-11.114769c8.178541,0 14.731218,5.56749 14.808558,11.114769l0,0" fill="#53ECF4" id="path-2_31_"/>
    <path d="m55.93264,52.809696c0,2.846581 -2.306973,5.15443 -5.152679,5.15443c-2.844826,0 -5.151794,-2.30785 -5.151794,-5.15443c0,-2.848343 2.306969,-5.156193 5.151794,-5.156193c2.845707,0 5.152679,2.30785 5.152679,5.156193z" fill="#EDC951" id="path-3_31_"/>
    <path d="m25.051741,54.568264c0,2.847462 -2.306971,5.155308 -5.151796,5.155308c-2.845703,0 -5.152675,-2.307846 -5.152675,-5.155308s2.306972,-5.156189 5.152675,-5.156189c2.844826,0 5.151796,2.308727 5.151796,5.156189z" fill="#EDC951" id="path-4_31_"/>
    <path d="m54.539665,54.216724c-0.727684,0 -1.318268,-0.591461 -1.318268,-1.319145c0,-0.729443 0.590584,-1.319149 1.318268,-1.319149c0.386696,0 1.566105,0 1.566105,-2.256878l0,-3.601509c0,-3.152424 -2.562717,-5.716892 -5.712502,-5.716892l-38.66923,0c-3.149785,0 -5.712501,2.564468 -5.712501,5.716892l0,3.296551c0,1.334087 1.084496,2.419464 2.417706,2.419464l1.976525,0c0.727685,0 1.31827,0.590584 1.31827,1.319149c0,0.728561 -0.590585,1.319145 -1.31827,1.319145l-1.976525,0c-2.786821,0 -5.054244,-2.268303 -5.054244,-5.057758l0,-3.296551c0,-4.606915 3.745643,-8.35519 8.349039,-8.35519l38.66923,0c4.603397,0 8.349041,3.748276 8.349041,8.35519l0,3.601509c0,2.974014 -1.649593,4.895172 -4.202644,4.895172z" id="path-5_31_"/>
    <path d="m42.923077,54.074352l-21.092308,0c-0.727682,0 -1.318268,-0.590584 -1.318268,-1.319145c0,-0.728565 0.590586,-1.319149 1.318268,-1.319149l21.092308,0c0.727684,0 1.318272,0.590584 1.318272,1.319149c0,0.728561 -0.590588,1.319145 -1.318272,1.319145z" id="path-6_29_"/>
    <path d="m42.887924,39.123421c-0.719776,0 -1.307724,-0.79623 -1.318272,-1.518642c-0.064152,-4.632397 -5.846962,-9.922176 -13.490286,-9.922176c-7.438555,0 -13.489411,4.339741 -13.489411,9.740253c0,0.728565 -0.590584,1.291904 -1.318269,1.291904s-1.31827,-0.603771 -1.31827,-1.332333c0,-6.855877 7.233784,-12.440067 16.12595,-12.440067c8.498442,0 16.034548,6.015701 16.126825,12.629898c0.010548,0.727684 -0.571247,0.672318 -1.300694,1.551163c-0.005272,0 -0.011425,0 -0.017574,0z" id="path-7_28_"/>
    <path d="m49.02227,60.162994c-3.567238,0 -6.470066,-2.904579 -6.470066,-6.474453s2.902828,-6.474461 6.470066,-6.474461c3.568115,0 6.470947,2.904587 6.470947,6.474461s-2.902832,6.474453 -6.470947,6.474453zm0,-10.310619c-2.113625,0 -3.833527,1.720783 -3.833527,3.836166s1.719902,3.836163 3.833527,3.836163c2.114506,0 3.834408,-1.720783 3.834408,-3.836163s-1.719902,-3.836166 -3.834408,-3.836166z" id="path-8_26_"/>
    <path d="m16.384562,59.284149c-3.568117,0 -6.470945,-2.905464 -6.470945,-6.474453c0,-3.570755 2.902828,-6.475342 6.470945,-6.475342c3.567234,0 6.470064,2.904587 6.470064,6.475342c0,3.568989 -2.90283,6.474453 -6.470064,6.474453zm0,-10.311497c-2.114506,0 -3.834408,1.721657 -3.834408,3.837044s1.719902,3.835281 3.834408,3.835281c2.113623,0 3.833527,-1.719902 3.833527,-3.835281s-1.719904,-3.837044 -3.833527,-3.837044z" id="path-9_22_"/>
    <path d="m27.54327,39.563728c-0.727684,0 -1.31827,-0.591465 -1.31827,-1.319153l0,-11.432909c0,-0.729443 0.590586,-1.320028 1.31827,-1.320028s1.31827,0.590586 1.31827,1.320028l0,11.432909c0,0.727688 -0.590586,1.319153 -1.31827,1.319153z" id="path-10_18_"/>
    <path d="m56.984615,45.279739l-3.515385,0c-0.727684,0 -1.318268,-0.590584 -1.318268,-1.319145c0,-0.728569 0.590584,-1.319149 1.318268,-1.319149l3.515385,0c0.727684,0 1.318272,0.59058 1.318272,1.319149c0,0.728561 -0.590588,1.319145 -1.318272,1.319145z" id="path-11_17_"/>
   </g>
  </g>
 </g>
</svg>