<?xml version="1.0" encoding="iso-8859-1"?>
<!-- Generator: Adobe Illustrator 19.1.0, SVG Export Plug-In . SVG Version: 6.00 Build 0)  -->
<svg version="1.1" id="Capa_1" xmlns="http://www.w3.org/2000/svg" xmlns:xlink="http://www.w3.org/1999/xlink" x="0px" y="0px"
	 viewBox="0 0 63.093 63.093" style="enable-background:new 0 0 63.093 63.093;" xml:space="preserve">
<g>
	<g id="group-18svg">
		<path id="path-1_8_" style="fill:#FF917B;" d="M57.461,38.91c0,13.079-10.595,23.682-23.665,23.682
			c-13.069,0-23.664-10.603-23.664-23.682s10.595-23.681,23.664-23.681C46.866,15.229,57.461,25.831,57.461,38.91z"/>
		<path id="path-2_8_" style="fill:#81BDA4;" d="M49.812,38.91c0,8.852-7.17,16.027-16.016,16.027
			c-8.845,0-16.015-7.175-16.015-16.027c0-8.851,7.17-16.027,16.015-16.027C42.642,22.883,49.812,30.059,49.812,38.91z"/>
		<path id="path-3_8_" style="fill:#EDC951;" d="M39.938,8.005c0,1.106-0.895,2.002-2,2.002h-10c-1.104,0-2-0.896-2-2.002V5.003
			c0-1.105,0.896-2.001,2-2.001h10c1.105,0,2,0.896,2,2.001V8.005z"/>
		<path id="path-4_8_" d="M30.797,63.093c-13.876,0-25.165-11.297-25.165-25.183s11.289-25.183,25.165-25.183
			S55.961,24.024,55.961,37.91S44.673,63.093,30.797,63.093z M30.797,15.729c-12.222,0-22.165,9.95-22.165,22.181
			c0,12.23,9.943,22.18,22.165,22.18s22.164-9.95,22.164-22.18C52.961,25.679,43.019,15.729,30.797,15.729z"/>
		<path id="path-5_8_" d="M30.797,55.437c-9.658,0-17.516-7.862-17.516-17.527s7.858-17.528,17.516-17.528
			c9.657,0,17.515,7.863,17.515,17.528S40.454,55.437,30.797,55.437z M30.797,23.384c-8.004,0-14.516,6.516-14.516,14.526
			c0,8.009,6.512,14.525,14.516,14.525c8.003,0,14.515-6.516,14.515-14.525C45.312,29.9,38.8,23.384,30.797,23.384z"/>
		<path id="path-6_7_" d="M30.438,14.51c-0.828,0-1.5-0.672-1.5-1.501V9.006c0-0.829,0.672-1.501,1.5-1.501
			c0.829,0,1.5,0.672,1.5,1.501v4.003C31.938,13.838,31.267,14.51,30.438,14.51z"/>
		<path id="path-7_7_" d="M28.694,37.704l8.13-8.697l-3.843,11.272c-0.456,1.337-1.909,2.051-3.245,1.595
			c-1.337-0.456-2.05-1.911-1.594-3.248C28.261,38.276,28.458,37.959,28.694,37.704z"/>
		<path id="path-8_6_" d="M35.438,10.007h-10c-1.929,0-3.5-1.572-3.5-3.503V3.502c0-1.931,1.571-3.502,3.5-3.502h10
			c1.93,0,3.5,1.571,3.5,3.502v3.002C38.938,8.435,37.368,10.007,35.438,10.007z M25.438,3.002c-0.275,0-0.5,0.224-0.5,0.5v3.002
			c0,0.276,0.225,0.501,0.5,0.501h10c0.276,0,0.5-0.225,0.5-0.501V3.502c0-0.276-0.224-0.5-0.5-0.5H25.438z"/>
	</g>
</g>
<g>
</g>
<g>
</g>
<g>
</g>
<g>
</g>
<g>
</g>
<g>
</g>
<g>
</g>
<g>
</g>
<g>
</g>
<g>
</g>
<g>
</g>
<g>
</g>
<g>
</g>
<g>
</g>
<g>
</g>
</svg>
