<?xml version="1.0" encoding="iso-8859-1"?>
<!-- Generator: Adobe Illustrator 19.1.0, SVG Export Plug-In . SVG Version: 6.00 Build 0)  -->
<svg version="1.1" id="Capa_1" xmlns="http://www.w3.org/2000/svg" xmlns:xlink="http://www.w3.org/1999/xlink" x="0px" y="0px"
	 viewBox="0 0 66.011 66.011" style="enable-background:new 0 0 66.011 66.011;" xml:space="preserve">
<g>
	<g id="group-28svg">
		<path id="path-1_19_" style="fill:#EDC951;" d="M6,45.6v-5.003c0-2.202,1.8-4.003,4-4.003h28.294c0.39,0,0.706-0.316,0.706-0.707
			V22.702c0-1.166,0.953-2.12,2.118-2.12h12.637c1.555,0,2.943,0.68,3.471,2.144l4.507,9.206c0.301,0.834,0.892,1.458,1.664,1.893
			l1.625,1.384C66.185,35.863,66,37.057,66,38.392V45.6h-2.191H6z"/>
		<path id="path-2_19_" style="fill:#E56A77;" d="M56,26.587H45.353c-0.983,0-3.353,0.744-3.353,1.728v3.56
			c0,0.984,2.37,1.717,3.353,1.717H60l0,0"/>
		<path id="path-3_19_" style="fill:#53ECF4;" d="M6,53.606h60v-7.005H6V53.606z"/>
		<path id="path-4_19_" style="fill:#53ECF4;" d="M23.621,9.575H12c-2.2,0-4,1.801-4,4.002v11.577c0,1.144,1.667,2.071,2.81,2.071
			l13.08-4.175c1.933-0.681,2.11-1.928,2.11-3.072v-8.023C26,10.646,24.93,9.575,23.621,9.575z"/>
		<path id="path-5_19_" style="fill:#E56A77;" d="M61.037,54.83c0,2.269-1.838,4.108-4.105,4.108c-2.267,0-4.105-1.839-4.105-4.108
			c0-2.268,1.838-4.108,4.105-4.108C59.199,50.722,61.037,52.562,61.037,54.83z"/>
		<path id="path-6_18_" style="fill:#E56A77;" d="M30.002,54.83c0,2.269-1.838,4.108-4.105,4.108s-4.105-1.839-4.105-4.108
			c0-2.268,1.838-4.108,4.105-4.108S30.002,52.562,30.002,54.83z"/>
		<path id="path-7_18_" style="fill:#E56A77;" d="M19.657,54.83c0,2.269-1.838,4.108-4.104,4.108c-2.268,0-4.106-1.839-4.106-4.108
			c0-2.268,1.838-4.108,4.106-4.108C17.819,50.722,19.657,52.562,19.657,54.83z"/>
		<path id="path-8_17_" d="M61.5,45.6h-60c-0.828,0-1.5-0.672-1.5-1.501v-5.003c0-3.035,2.468-5.504,5.5-5.504H33V21.701
			c0-2.272,1.848-4.121,4.118-4.121h11.637c2.162,0,4.1,1.325,4.852,3.306l4.477,9.267c0.022,0.047,0.043,0.094,0.06,0.143
			c0.175,0.486,0.526,0.897,0.988,1.157c0.059,0.033,0.115,0.07,0.169,0.11l1.803,1.362C63,34.059,63,36.14,63,37.391v6.708
			C63,44.928,62.328,45.6,61.5,45.6z M3,42.598h57v-5.207c0-1.416-0.136-1.721-0.462-1.904c-0.059-0.034-0.115-0.071-0.169-0.111
			l-1.802-1.361c-1.017-0.601-1.799-1.525-2.215-2.62l-4.477-9.267c-0.023-0.047-0.043-0.095-0.061-0.144
			c-0.306-0.851-1.115-1.402-2.059-1.402H37.118c-0.606,0-1.118,0.513-1.118,1.119v12.185c0,1.493-1.214,2.708-2.706,2.708H5.5
			c-1.379,0-2.5,1.122-2.5,2.502V42.598z"/>
		<path id="path-9_15_" d="M7,54.607H1.5c-0.828,0-1.5-0.672-1.5-1.502v-8.506c0-0.829,0.672-1.501,1.5-1.501S3,43.77,3,44.599
			v7.005h4c0.828,0,1.5,0.672,1.5,1.501C8.5,53.935,7.828,54.607,7,54.607z"/>
		<path id="path-10_13_" d="M49,54.607H27c-0.828,0-1.5-0.672-1.5-1.502c0-0.829,0.672-1.501,1.5-1.501h22
			c0.828,0,1.5,0.672,1.5,1.501C50.5,53.935,49.828,54.607,49,54.607z"/>
		<path id="path-11_13_" d="M61.5,54.607H58c-0.828,0-1.5-0.672-1.5-1.502c0-0.829,0.672-1.501,1.5-1.501h2v-7.005
			c0-0.829,0.672-1.501,1.5-1.501S63,43.77,63,44.599v8.506C63,53.935,62.328,54.607,61.5,54.607z"/>
		<path id="path-12_12_" d="M57,33.592H42.352c-2.684,0-4.352-1.042-4.352-2.718v-3.56c0-1.987,2.713-3.729,4.352-3.729H53
			c0.828,0,1.5,0.671,1.5,1.501c0,0.829-0.672,1.501-1.5,1.501H42.352c-0.336,0.031-1.134,0.548-1.352,0.87v2.961
			c0.296,0.088,0.796,0.171,1.352,0.171H57c0.828,0,1.5,0.672,1.5,1.502C58.5,32.92,57.828,33.592,57,33.592z"/>
		<path id="path-13_10_" d="M53.932,59.439c-3.09,0-5.605-2.516-5.605-5.609c0-3.093,2.515-5.609,5.605-5.609
			s5.605,2.516,5.605,5.609C59.537,56.923,57.022,59.439,53.932,59.439z M53.932,51.223c-1.437,0-2.605,1.17-2.605,2.607
			s1.168,2.606,2.605,2.606c1.436,0,2.605-1.169,2.605-2.606S55.368,51.223,53.932,51.223z"/>
		<path id="path-14_9_" d="M22.897,59.439c-3.09,0-5.605-2.516-5.605-5.609c0-3.093,2.515-5.609,5.605-5.609
			c3.091,0,5.605,2.516,5.605,5.609C28.502,56.923,25.988,59.439,22.897,59.439z M22.897,51.223c-1.436,0-2.605,1.17-2.605,2.607
			s1.169,2.606,2.605,2.606c1.437,0,2.605-1.169,2.605-2.606S24.334,51.223,22.897,51.223z"/>
		<path id="path-15_8_" d="M12.553,59.439c-3.091,0-5.606-2.516-5.606-5.609c0-3.093,2.515-5.609,5.606-5.609
			c3.09,0,5.604,2.516,5.604,5.609C18.157,56.923,15.643,59.439,12.553,59.439z M12.553,51.223c-1.437,0-2.606,1.17-2.606,2.607
			s1.169,2.606,2.606,2.606c1.436,0,2.604-1.169,2.604-2.606S13.989,51.223,12.553,51.223z"/>
		<path id="path-16_6_" d="M7.06,27.725c-1.916,0-4.06-1.527-4.06-3.572V12.076c0-3.034,2.468-5.504,5.5-5.504h11.121
			c2.414,0,4.379,1.966,4.379,4.383v8.022c0,2.222-1.089,3.731-3.237,4.488l-13.251,4.19C7.365,27.702,7.213,27.725,7.06,27.725z
			 M8.5,9.575c-1.379,0-2.5,1.122-2.5,2.501v12.077c0.041,0.144,0.465,0.473,0.884,0.552l12.928-4.088
			C20.914,20.229,21,19.715,21,18.977v-8.022c0-0.761-0.618-1.38-1.379-1.38H8.5z"/>
		<path id="path-17_4_" d="M56.228,16.931c-0.416,0-0.829-0.077-1.196-0.239c-0.901-0.396-1.408-1.206-1.39-2.221
			c0.01-0.552,0.512-0.997,1.017-0.983c0.552,0.01,0.992,0.465,0.983,1.018c-0.004,0.235,0.068,0.305,0.221,0.365
			c0.322,0.124,0.729,0.038,0.915-0.059c-0.151-0.538-0.15-1.428-0.104-2.235H22c-0.553,0-1-0.448-1-1.001
			c0-0.553,0.447-1.001,1-1.001h35.757c0.283,0,0.552,0.121,0.742,0.33c0.189,0.211,0.281,0.491,0.253,0.773
			c-0.111,1.088-0.137,2.29-0.056,2.573c0.264,0.693,0.093,1.43-0.462,1.957C57.742,16.676,56.982,16.931,56.228,16.931z"/>
		<path id="path-18_3_" d="M57,8.574H19c-0.553,0-1-0.448-1-1.001c0-0.552,0.447-1.001,1-1.001h38c0.553,0,1,0.449,1,1.001
			C58,8.126,57.553,8.574,57,8.574z"/>
		<path id="path-19_3_" d="M22.898,19.603c-0.358,0-0.704-0.193-0.883-0.531c-0.26-0.489-0.075-1.094,0.414-1.354l11.466-6.095
			c0.487-0.259,1.091-0.073,1.351,0.415c0.26,0.488,0.074,1.094-0.414,1.353l-11.466,6.095
			C23.217,19.565,23.057,19.603,22.898,19.603z"/>
	</g>
</g>
<g>
</g>
<g>
</g>
<g>
</g>
<g>
</g>
<g>
</g>
<g>
</g>
<g>
</g>
<g>
</g>
<g>
</g>
<g>
</g>
<g>
</g>
<g>
</g>
<g>
</g>
<g>
</g>
<g>
</g>
</svg>
