<?xml version="1.0" encoding="iso-8859-1"?>
<!-- Generator: Adobe Illustrator 19.1.0, SVG Export Plug-In . SVG Version: 6.00 Build 0)  -->
<svg version="1.1" id="Capa_1" xmlns="http://www.w3.org/2000/svg" xmlns:xlink="http://www.w3.org/1999/xlink" x="0px" y="0px"
	 viewBox="0 0 65.046 65.046" style="enable-background:new 0 0 65.046 65.046;" xml:space="preserve">
<g>
	<g id="group-4svg">
		<path id="path-1_32_" style="fill:#53ECF4;" d="M41.386,51.036H17.233c-3.141,0-5.71-2.571-5.71-5.714V12.008
			c0-4.421,3.582-8.005,8-8.005h18c4.418,0,8,3.584,8,8.005v34.888C45.523,49.173,43.661,51.036,41.386,51.036z"/>
		<path id="path-2_32_" style="fill:#EDC951;" d="M35.748,38.764c0.481,4.113-1.523,5.971-5.662,5.971
			c-4.138,0-5.929-1.87-5.356-5.971c0.611-4.367,5.356-9.332,5.356-9.332S35.262,34.626,35.748,38.764z"/>
		<path id="path-3_32_" style="fill:#E56A77;" d="M50.523,61.043c0,2.211-1.791,4.003-4,4.003h-36c-2.209,0-4-1.792-4-4.003l0,0
			c0-2.21,1.791-4.003,4-4.003h36C48.732,57.04,50.523,58.833,50.523,61.043L50.523,61.043z"/>
		<path id="path-4_32_" d="M37.023,22.016h-21c-0.829,0-1.5-0.672-1.5-1.502v-9.006c0-0.829,0.671-1.501,1.5-1.501h21
			c0.829,0,1.5,0.672,1.5,1.501v9.006C38.523,21.344,37.852,22.016,37.023,22.016z M17.523,19.013h18v-6.004h-18V19.013z"/>
		<path id="path-5_32_" d="M44.023,64.045h-36c-3.033,0-5.5-2.469-5.5-5.504c0-3.035,2.467-5.504,5.5-5.504h36
			c3.033,0,5.5,2.469,5.5,5.504C49.523,61.576,47.056,64.045,44.023,64.045z M8.023,56.04c-1.378,0-2.5,1.122-2.5,2.501
			c0,1.38,1.122,2.502,2.5,2.502h36c1.378,0,2.5-1.122,2.5-2.502c0-1.379-1.122-2.501-2.5-2.501H8.023z"/>
		<path id="path-6_30_" d="M39.386,50.035H14.233c-3.7,0-6.71-3.012-6.71-6.714V9.507c0-5.242,4.262-9.507,9.5-9.507h18
			c5.238,0,9.5,4.265,9.5,9.507v35.388C44.523,47.729,42.218,50.035,39.386,50.035z M17.023,3.002c-3.584,0-6.5,2.918-6.5,6.505
			v33.814c0,2.047,1.664,3.712,3.71,3.712h25.153c1.178,0,2.137-0.959,2.137-2.138V9.507c0-3.587-2.916-6.505-6.5-6.505H17.023z"/>
		<path id="path-7_29_" d="M56.831,38.027h-0.116c-3.459,0-7.192-2.198-7.192-5.749V18.876c0-1.901-0.602-2.865-1.79-2.865h-4.21
			c-0.829,0-1.5-0.672-1.5-1.501c0-0.829,0.671-1.501,1.5-1.501h4.21c2.955,0,4.79,2.248,4.79,5.867v13.402
			c0,1.619,2.209,2.747,4.192,2.747h0.116c1.812,0,2.692-0.899,2.692-2.747V14.9L53.55,8.161c-0.55-0.62-0.493-1.568,0.126-2.118
			c0.621-0.55,1.569-0.494,2.118,0.126l6.351,7.165c0.244,0.274,0.378,0.629,0.378,0.996v17.948
			C62.523,35.77,60.289,38.027,56.831,38.027z"/>
		<path id="path-8_27_" d="M27.086,44.234c-2.605,0-4.446-0.661-5.629-2.023c-1.145-1.316-1.553-3.22-1.212-5.656
			c0.67-4.792,5.549-9.944,5.757-10.161c0.279-0.293,0.665-0.46,1.068-0.464c0.413-0.004,0.792,0.155,1.078,0.441
			c0.567,0.569,5.559,5.693,6.089,10.217c0.279,2.378-0.174,4.253-1.347,5.572C31.666,43.537,29.713,44.234,27.086,44.234z
			 M27.117,29.681c-1.342,1.637-3.533,4.652-3.902,7.289c-0.214,1.539-0.045,2.639,0.505,3.271c0.572,0.658,1.704,0.991,3.366,0.991
			c1.734,0,2.933-0.359,3.562-1.067c0.579-0.652,0.784-1.738,0.61-3.228C30.984,34.602,28.719,31.533,27.117,29.681z"/>
		<path id="path-9_23_" d="M22.023,20.514c-0.829,0-1.5-0.671-1.5-1.501v-3.002c0-0.829,0.671-1.501,1.5-1.501s1.5,0.672,1.5,1.501
			v3.002C23.523,19.843,22.852,20.514,22.023,20.514z"/>
		<path id="path-10_19_" d="M27.023,20.514c-0.829,0-1.5-0.671-1.5-1.501v-1c0-0.83,0.671-1.501,1.5-1.501s1.5,0.671,1.5,1.501v1
			C28.523,19.843,27.852,20.514,27.023,20.514z"/>
		<path id="path-11_18_" d="M32.023,20.514c-0.829,0-1.5-0.671-1.5-1.501v-3.002c0-0.829,0.671-1.501,1.5-1.501
			c0.829,0,1.5,0.672,1.5,1.501v3.002C33.523,19.843,32.852,20.514,32.023,20.514z"/>
	</g>
</g>
<g>
</g>
<g>
</g>
<g>
</g>
<g>
</g>
<g>
</g>
<g>
</g>
<g>
</g>
<g>
</g>
<g>
</g>
<g>
</g>
<g>
</g>
<g>
</g>
<g>
</g>
<g>
</g>
<g>
</g>
</svg>
