<?xml version="1.0" encoding="iso-8859-1"?>
<!-- Generator: Adobe Illustrator 19.1.0, SVG Export Plug-In . SVG Version: 6.00 Build 0)  -->
<svg version="1.1" id="Capa_1" xmlns="http://www.w3.org/2000/svg" xmlns:xlink="http://www.w3.org/1999/xlink" x="0px" y="0px"
	 viewBox="0 0 63 63" style="enable-background:new 0 0 63 63;" xml:space="preserve">
<g>
	<g id="group-33svg">
		<path id="path-1_25_" style="fill:#81BDA4;" d="M24.289,58.346L9.555,60.033C6.785,60.358,4,58.193,4,55.402V12.333
			c0-2.28,2.458-4.364,4.72-4.632l15.233-1.823C24.092,5.861,24,5.963,24,6.103v51.994C24,58.22,24.41,58.331,24.289,58.346z"/>
		<path id="path-2_25_" style="fill:#E56A77;" d="M44.132,60.677l14.851-0.931c2.459-0.15,4.017-2.19,4.017-4.655V11.977
			c0-2.687-1.448-4.818-4.128-4.655L43.757,8.209C43.618,8.193,43,8.295,43,8.434v51.995C43,60.552,44.011,60.663,44.132,60.677z"/>
		<path id="path-3_25_" style="fill:#EDC951;" d="M43,60.622l-19-2.325V5.825l19,2.34V60.622z"/>
		<path id="path-4_25_" d="M6.376,59.565C2.92,59.565,0,56.742,0,53.4V10.331C0,7.384,2.653,4.58,5.794,4.209l15.562-1.836
			C22.153,2.373,23,2.979,23,4.101v51.714c0.178,0.525,0.037,0.953-0.078,1.183l-0.363,0.722l-0.845,0.115L7.102,59.523
			C6.861,59.552,6.617,59.565,6.376,59.565z M20,5.546L6.147,7.191C4.529,7.382,3,8.908,3,10.331V53.4
			c-0.001,1.803,1.806,3.37,3.755,3.141L20,55.011V5.546z"/>
		<path id="path-5_25_" d="M41.382,60.177c-0.058,0-0.116-0.003-0.175-0.01C40.662,60.103,39,59.907,39,58.428V6.433
			c0-1.122,1.08-1.334,2.097-1.334c0.006,0,0.012,0,0.018,0l14.919-1.08c0.124-0.008,0.25-0.11,0.374-0.11
			c3.24,0,5.592,2.494,5.592,6.066V53.09c0,3.314-2.386,5.959-5.55,6.153l-14.974,0.931C41.444,60.176,41.413,60.177,41.382,60.177z
			 M42,7.66v49.474l14.265-0.888C57.851,56.149,59,54.822,59,53.09V9.975c0-1.63-0.87-3.274-2.787-3.156L42,7.66z"/>
		<path id="path-6_24_" d="M40.5,60.121c-0.061,0-0.121-0.004-0.182-0.011l-19-2.324C20.565,57.694,20,57.055,20,56.296V3.824
			c0-0.43,0.184-0.839,0.506-1.124c0.322-0.285,0.754-0.418,1.177-0.366l19,2.339C41.435,4.766,42,5.405,42,6.164V58.62
			c0,0.43-0.184,0.839-0.506,1.124C41.218,59.988,40.864,60.121,40.5,60.121z M23,54.967l16,1.958V7.491l-16-1.97V54.967z"/>
		<path id="path-7_23_" d="M2.211,42.503c-0.253,0-0.509-0.064-0.744-0.199c-0.719-0.411-0.968-1.329-0.556-2.048l13.252-23.172
			c0.295-0.516,0.875-0.808,1.457-0.748c0.59,0.062,1.089,0.466,1.272,1.031l5.286,16.342l1.945-4.786
			c0.152-0.373,0.448-0.67,0.82-0.823c0.372-0.153,0.79-0.15,1.161,0.009l15.339,6.578l12.242-13.215
			c0.562-0.607,1.511-0.644,2.119-0.081l5.844,5.412c0.609,0.563,0.645,1.513,0.083,2.121s-1.512,0.646-2.12,0.082l-4.745-4.393
			L42.924,37.504c-0.431,0.465-1.107,0.61-1.691,0.359l-14.906-6.392l-2.919,7.181c-0.238,0.585-0.825,0.96-1.445,0.935
			c-0.63-0.023-1.178-0.438-1.372-1.038l-5.509-17.028L3.514,41.747C3.237,42.231,2.731,42.503,2.211,42.503z"/>
	</g>
</g>
<g>
</g>
<g>
</g>
<g>
</g>
<g>
</g>
<g>
</g>
<g>
</g>
<g>
</g>
<g>
</g>
<g>
</g>
<g>
</g>
<g>
</g>
<g>
</g>
<g>
</g>
<g>
</g>
<g>
</g>
</svg>
