<?xml version="1.0" encoding="iso-8859-1"?>
<!-- Generator: Adobe Illustrator 19.1.0, SVG Export Plug-In . SVG Version: 6.00 Build 0)  -->
<svg version="1.1" id="Capa_1" xmlns="http://www.w3.org/2000/svg" xmlns:xlink="http://www.w3.org/1999/xlink" x="0px" y="0px"
	 viewBox="0 0 63.044 63.044" style="enable-background:new 0 0 63.044 63.044;" xml:space="preserve">
<g>
	<g id="group-5svg">
		<path id="path-1_35_" style="fill:#53ECF4;" d="M38.14,61.043c0,1.105-0.895,2.001-2,2.001h-6c-1.104,0-2-0.896-2-2.001V5.003
			c0-1.105,0.896-2.001,2-2.001h6c1.105,0,2,0.896,2,2.001V61.043z"/>
		<path id="path-2_35_" style="fill:#EDC951;" d="M27.14,26.018v-9.006H9.544c-0.472,0-0.931-0.192-1.309,0.092L4.599,19.66
			c-1.163,0.874-1.163,2.534,0,3.407l3.636,2.622c0.378,0.284,0.837,0.329,1.309,0.329H27.14z"/>
		<path id="path-3_33_" style="fill:#81BDA4;" d="M27.14,43.03V33.023H9.544c-0.472,0-0.931-0.01-1.309,0.274l-3.636,2.647
			c-1.163,0.874-1.163,2.579,0,3.453l3.636,2.963c0.378,0.283,0.837,0.67,1.309,0.67H27.14z"/>
		<path id="path-4_33_" style="fill:#E56A77;" d="M38.14,23.016V13.009h18.859c0.472,0,0.932,0.172,1.309,0.455l3.636,2.739
			c1.164,0.874,1.164,2.625,0,3.498l-3.636,2.804c-0.377,0.283-0.837,0.511-1.309,0.511H38.14z"/>
		<path id="path-5_33_" d="M54.999,22.015H36.64c-0.828,0-1.5-0.672-1.5-1.501V10.507c0-0.829,0.672-1.501,1.5-1.501h18.359
			c0.918,0,1.605,0.536,2.059,0.89l3.814,3.001c0.908,0.681,1.445,1.768,1.445,2.96c0,1.192-0.537,2.279-1.473,2.981l-3.667,2.608
			C56.419,22.015,55.53,22.015,54.999,22.015z M38.14,19.013h16.859c0.126,0,0.389,0,0.468-0.025l3.609-2.574
			c0.215-0.163,0.241-0.445,0.241-0.557c0-0.113-0.026-0.395-0.273-0.579l-3.831-3.014c-0.098-0.077-0.251-0.196-0.347-0.256H38.14
			V19.013z"/>
		<path id="path-6_31_" d="M6.789,25.07c-0.555,0-1.044-0.156-1.453-0.463l-3.563-2.351c-1.01-0.754-1.546-1.824-1.546-2.987
			c0-1.164,0.536-2.234,1.472-2.936l3.646-2.689c0.758-0.569,1.619-0.635,2.199-0.635H25.64c0.829,0,1.5,0.672,1.5,1.501v9.006
			c0,0.829-0.671,1.501-1.5,1.501H7.544c-0.08,0-0.159,0.011-0.237,0.019C7.13,25.054,6.957,25.07,6.789,25.07z M6.787,22.067
			l0.002,1.502v-1.502H6.787z M7.544,16.011c-0.321,0-0.404,0.04-0.413,0.044l-3.642,2.687c-0.227,0.17-0.262,0.404-0.262,0.527
			c0,0.122,0.035,0.355,0.272,0.533l3.42,2.257c0.026-0.003,0.052-0.006,0.079-0.009c0.179-0.019,0.362-0.035,0.546-0.035H24.14
			v-6.004H7.544z"/>
		<path id="path-7_30_" d="M25.64,42.029H7.544c-0.778,0-1.562-0.266-2.208-0.751l-3.64-2.746c-0.933-0.7-1.469-1.779-1.469-2.956
			c0-1.178,0.536-2.256,1.472-2.959l3.627-2.766c0.738-0.554,1.482-0.831,2.218-0.831H25.64c0.829,0,1.5,0.672,1.5,1.501v10.007
			C27.14,41.358,26.469,42.029,25.64,42.029z M7.544,32.022c-0.031,0.004-0.178,0.051-0.409,0.224l-3.627,2.766
			c-0.246,0.185-0.281,0.432-0.281,0.564c0,0.131,0.035,0.378,0.272,0.556l3.64,2.746c0.126,0.096,0.272,0.149,0.405,0.149H24.14
			v-7.005H7.544z"/>
		<path id="path-8_28_" d="M34.64,63.044h-6c-1.93,0-3.5-1.571-3.5-3.502V3.502C25.14,1.571,26.71,0,28.64,0h6
			c1.93,0,3.5,1.571,3.5,3.502v56.04C38.14,61.473,36.57,63.044,34.64,63.044z M28.64,3.002c-0.276,0-0.5,0.224-0.5,0.5v56.04
			c0,0.276,0.224,0.5,0.5,0.5h6c0.276,0,0.5-0.224,0.5-0.5V3.502c0-0.276-0.224-0.5-0.5-0.5H28.64z"/>
	</g>
</g>
<g>
</g>
<g>
</g>
<g>
</g>
<g>
</g>
<g>
</g>
<g>
</g>
<g>
</g>
<g>
</g>
<g>
</g>
<g>
</g>
<g>
</g>
<g>
</g>
<g>
</g>
<g>
</g>
<g>
</g>
</svg>
