<?xml version="1.0" encoding="iso-8859-1"?>
<!-- Generator: Adobe Illustrator 19.1.0, SVG Export Plug-In . SVG Version: 6.00 Build 0)  -->
<svg version="1.1" id="Capa_1" xmlns="http://www.w3.org/2000/svg" xmlns:xlink="http://www.w3.org/1999/xlink" x="0px" y="0px"
	 viewBox="0 0 64.048 64.048" style="enable-background:new 0 0 64.048 64.048;" xml:space="preserve">
<g>
	<g id="group-37svg">
		<path id="path-1_29_" style="fill:#E56A77;" d="M39.379,16.282c0.367-1.04,1.07-2.647,1.07-3.814c0-5.504-4.458-9.966-9.958-9.966
			s-9.959,4.462-9.959,9.966c0,1.167,0.702,2.774,1.07,3.814l7.815,15.615c0.437,0.872,1.681,0.873,2.118,0.001L39.379,16.282z"/>
		<path id="path-2_29_" style="fill:#EDC951;" d="M32.642,7.752c1.815,0.822,3.078,2.65,3.078,4.773c0,2.891-2.342,5.234-5.23,5.234
			c-2.89,0-5.232-2.343-5.232-5.234c0-2.095,1.231-3.903,3.008-4.74l0,0"/>
		<path id="path-3_29_" style="fill:#EDC951;" d="M62.154,58.602c0,2.732-2.213,4.946-4.943,4.946c-2.729,0-4.942-2.214-4.942-4.946
			c0-2.731,2.213-4.946,4.942-4.946C59.942,53.656,62.154,55.871,62.154,58.602z"/>
		<path id="path-4_29_" style="fill:#EDC951;" d="M35.227,48.617c0,2.731-2.213,4.946-4.943,4.946c-2.729,0-4.941-2.215-4.941-4.946
			c0-2.732,2.212-4.946,4.941-4.946C33.014,43.671,35.227,45.885,35.227,48.617z"/>
		<path id="path-5_29_" style="fill:#EDC951;" d="M16.278,57.599c0,2.731-2.213,4.945-4.943,4.945c-2.729,0-4.942-2.214-4.942-4.945
			c0-2.732,2.213-4.946,4.942-4.946C14.066,52.653,16.278,54.867,16.278,57.599z"/>
		<path id="path-6_28_" d="M27.476,33.052L27.476,33.052c-1.023-0.001-1.942-0.569-2.401-1.484L17.26,15.954
			c-0.028-0.056-0.053-0.113-0.073-0.172c-0.065-0.183-0.141-0.385-0.222-0.6c-0.416-1.109-0.934-2.491-0.934-3.715
			C16.031,5.144,21.172,0,27.49,0c6.319,0,11.46,5.144,11.46,11.467c0,1.222-0.517,2.599-0.932,3.707
			c-0.082,0.217-0.159,0.421-0.225,0.607c-0.02,0.06-0.046,0.118-0.074,0.174l-7.844,15.616
			C29.417,32.485,28.497,33.052,27.476,33.052z M19.983,14.69l7.493,14.972l7.52-14.972c0.064-0.178,0.136-0.37,0.212-0.571
			c0.313-0.834,0.74-1.975,0.74-2.652c0-4.667-3.794-8.465-8.459-8.465c-4.664,0-8.458,3.798-8.458,8.465
			c0,0.68,0.429,1.824,0.743,2.66C19.85,14.326,19.92,14.515,19.983,14.69z"/>
		<path id="path-7_27_" d="M27.49,18.26c-3.711,0-6.731-3.022-6.731-6.736c0-2.598,1.519-4.992,3.869-6.098
			c0.753-0.353,1.644-0.03,1.996,0.72c0.353,0.75,0.031,1.644-0.718,1.997c-1.304,0.613-2.147,1.941-2.147,3.381
			c0,2.059,1.674,3.734,3.731,3.734s3.731-1.675,3.731-3.734c0-1.465-0.862-2.801-2.196-3.405c-0.755-0.341-1.09-1.23-0.749-1.986
			c0.341-0.754,1.227-1.091,1.985-0.749c2.405,1.088,3.96,3.498,3.96,6.14C34.221,15.238,31.201,18.26,27.49,18.26z"/>
		<path id="path-8_25_" d="M54.212,64.048c-3.553,0-6.442-2.892-6.442-6.446c0-3.555,2.889-6.447,6.442-6.447
			c3.553,0,6.443,2.892,6.443,6.447C60.654,61.156,57.764,64.048,54.212,64.048z M54.212,54.157c-1.898,0-3.442,1.545-3.442,3.445
			c0,1.899,1.544,3.444,3.442,3.444c1.899,0,3.443-1.545,3.443-3.444C57.654,55.702,56.111,54.157,54.212,54.157z"/>
		<path id="path-9_21_" d="M27.284,54.063c-3.551,0-6.441-2.892-6.441-6.447s2.89-6.447,6.441-6.447
			c3.553,0,6.443,2.892,6.443,6.447S30.837,54.063,27.284,54.063z M27.284,44.171c-1.897,0-3.441,1.546-3.441,3.445
			c0,1.899,1.544,3.445,3.441,3.445c1.899,0,3.443-1.546,3.443-3.445C30.726,45.717,29.183,44.171,27.284,44.171z"/>
		<path id="path-10_17_" d="M8.335,63.045c-3.552,0-6.442-2.892-6.442-6.447c0-3.555,2.89-6.446,6.442-6.446
			c3.553,0,6.443,2.891,6.443,6.446C14.779,60.153,11.889,63.045,8.335,63.045z M8.335,53.154c-1.898,0-3.442,1.545-3.442,3.444
			c0,1.899,1.544,3.445,3.442,3.445c1.899,0,3.443-1.546,3.443-3.445C11.779,54.699,10.234,53.154,8.335,53.154z"/>
		<path id="path-11_16_" d="M12.557,55.535c-0.559,0-1.096-0.314-1.354-0.852c-0.358-0.748-0.043-1.644,0.705-2.003l10.053-4.825
			c0.745-0.358,1.643-0.044,2.001,0.705c0.359,0.747,0.043,1.644-0.704,2.002l-10.054,4.825
			C12.995,55.488,12.774,55.535,12.557,55.535z"/>
		<path id="path-12_15_" d="M49.522,57.537c-0.194,0-0.391-0.038-0.58-0.118l-17.421-7.331c-0.764-0.321-1.123-1.201-0.802-1.965
			c0.321-0.764,1.2-1.124,1.964-0.802l17.421,7.33c0.763,0.322,1.123,1.202,0.802,1.966C50.665,57.191,50.109,57.537,49.522,57.537z
			"/>
		<path id="path-13_13_" d="M27.285,44.401c-0.017,0-0.034,0-0.051,0c-0.827,0-1.477-0.838-1.449-1.666l0.207-6.189
			c0.028-0.829,0.746-1.505,1.549-1.478c0.827,0.027,1.477,0.707,1.449,1.536l-0.207,6.239
			C28.756,43.654,28.09,44.401,27.285,44.401z"/>
	</g>
</g>
<g>
</g>
<g>
</g>
<g>
</g>
<g>
</g>
<g>
</g>
<g>
</g>
<g>
</g>
<g>
</g>
<g>
</g>
<g>
</g>
<g>
</g>
<g>
</g>
<g>
</g>
<g>
</g>
<g>
</g>
</svg>
