<?xml version="1.0" encoding="iso-8859-1"?>
<!-- Generator: Adobe Illustrator 19.1.0, SVG Export Plug-In . SVG Version: 6.00 Build 0)  -->
<svg version="1.1" id="Capa_1" xmlns="http://www.w3.org/2000/svg" xmlns:xlink="http://www.w3.org/1999/xlink" x="0px" y="0px"
	 viewBox="0 0 64 64" style="enable-background:new 0 0 64 64;" xml:space="preserve">
<g>
	<g id="group-19svg">
		<path id="path-1_9_" style="fill:#EDC951;" d="M57,47.1h3c2.209,0,4-1.792,4-4.003V23.083c0-2.202-1.8-4.003-4-4.003H8
			c-2.2,0-4,1.801-4,4.003v20.014C4,45.308,5.791,47.1,8,47.1h3l0,0"/>
		<path id="path-2_9_" style="fill:#81BDA4;" d="M56.649,49.144c0,2.364-1.915,4.281-4.277,4.281c-2.362,0-4.277-1.917-4.277-4.281
			c0-2.364,1.915-4.28,4.277-4.28C54.734,44.864,56.649,46.78,56.649,49.144z"/>
		<path id="path-3_9_" style="fill:#81BDA4;" d="M20.442,49.144c0,2.364-1.915,4.281-4.277,4.281s-4.277-1.917-4.277-4.281
			c0-2.364,1.915-4.28,4.277-4.28S20.442,46.78,20.442,49.144z"/>
		<path id="path-4_9_" style="fill:#53ECF4;" d="M55,28.087c0-1.105-0.896-2.001-2-2.001H14c-1.105,0-2,0.896-2,2.001v6.005
			c0,1.105,0.895,2.001,2,2.001h39c1.104,0,2-0.896,2-2.001V28.087z"/>
		<path id="path-5_9_" d="M50.5,36.092h-39c-1.93,0-3.5-1.571-3.5-3.502v-6.005c0-1.931,1.57-3.502,3.5-3.502h39
			c1.93,0,3.5,1.571,3.5,3.502v6.005C54,34.521,52.43,36.092,50.5,36.092z M11.5,26.086c-0.275,0-0.5,0.224-0.5,0.5v6.005
			c0,0.276,0.225,0.5,0.5,0.5h39c0.275,0,0.5-0.224,0.5-0.5v-6.005c0-0.276-0.225-0.5-0.5-0.5H11.5z"/>
		<path id="path-6_8_" d="M57.5,47.1H54c-0.828,0-1.5-0.672-1.5-1.501s0.672-1.501,1.5-1.501h3.5c1.379,0,2.5-1.123,2.5-2.502
			V21.583c0-1.38-1.121-2.502-2.5-2.502h-52c-1.379,0-2.5,1.122-2.5,2.502v20.014c0,1.379,1.121,2.502,2.5,2.502H9
			c0.828,0,1.5,0.672,1.5,1.501S9.828,47.1,9,47.1H5.5c-3.032,0-5.5-2.469-5.5-5.504V21.583c0-3.035,2.468-5.504,5.5-5.504h52
			c3.032,0,5.5,2.469,5.5,5.504v20.014C63,44.631,60.532,47.1,57.5,47.1z"/>
		<path id="path-7_8_" d="M45,47.1H17c-0.828,0-1.5-0.672-1.5-1.501s0.672-1.501,1.5-1.501h28c0.828,0,1.5,0.672,1.5,1.501
			S45.828,47.1,45,47.1z"/>
		<path id="path-8_7_" d="M49.372,53.925c-3.185,0-5.777-2.594-5.777-5.781c0-3.189,2.592-5.782,5.777-5.782
			c3.186,0,5.777,2.593,5.777,5.782C55.149,51.331,52.558,53.925,49.372,53.925z M49.372,45.364c-1.531,0-2.777,1.247-2.777,2.78
			c0,1.532,1.246,2.779,2.777,2.779c1.531,0,2.777-1.247,2.777-2.779C52.149,46.611,50.903,45.364,49.372,45.364z"/>
		<path id="path-9_5_" d="M13.165,53.925c-3.186,0-5.777-2.594-5.777-5.781c0-3.189,2.591-5.782,5.777-5.782
			s5.777,2.593,5.777,5.782C18.942,51.331,16.351,53.925,13.165,53.925z M13.165,45.364c-1.531,0-2.777,1.247-2.777,2.78
			c0,1.532,1.246,2.779,2.777,2.779s2.777-1.247,2.777-2.779C15.942,46.611,14.696,45.364,13.165,45.364z"/>
		<path id="path-10_5_" d="M60,39.094h-3c-0.828,0-1.5-0.672-1.5-1.501c0-0.829,0.672-1.501,1.5-1.501h3
			c0.828,0,1.5,0.672,1.5,1.501C61.5,38.423,60.828,39.094,60,39.094z"/>
		<path id="path-11_5_" d="M43.5,34.591c-0.828,0-1.5-0.672-1.5-1.501v-7.005c0-0.829,0.672-1.501,1.5-1.501s1.5,0.672,1.5,1.501
			v7.005C45,33.919,44.328,34.591,43.5,34.591z"/>
		<path id="path-12_5_" d="M36.5,34.591c-0.828,0-1.5-0.672-1.5-1.501v-7.005c0-0.829,0.672-1.501,1.5-1.501s1.5,0.672,1.5,1.501
			v7.005C38,33.919,37.328,34.591,36.5,34.591z"/>
		<path id="path-13_4_" d="M29.5,34.591c-0.828,0-1.5-0.672-1.5-1.501v-7.005c0-0.829,0.672-1.501,1.5-1.501s1.5,0.672,1.5,1.501
			v7.005C31,33.919,30.328,34.591,29.5,34.591z"/>
		<path id="path-14_3_" d="M23.5,34.591c-0.828,0-1.5-0.672-1.5-1.501v-7.005c0-0.829,0.672-1.501,1.5-1.501s1.5,0.672,1.5,1.501
			v7.005C25,33.919,24.328,34.591,23.5,34.591z"/>
		<path id="path-15_3_" d="M15.5,34.591c-0.828,0-1.5-0.672-1.5-1.501v-7.005c0-0.829,0.672-1.501,1.5-1.501
			c0.828,0,1.5,0.672,1.5,1.501v7.005C17,33.919,16.328,34.591,15.5,34.591z"/>
		<path id="path-16_1_" d="M42,13.076H21c-0.828,0-1.5-0.672-1.5-1.501c0-0.829,0.672-1.501,1.5-1.501h21
			c0.828,0,1.5,0.672,1.5,1.501C43.5,12.405,42.828,13.076,42,13.076z"/>
	</g>
</g>
<g>
</g>
<g>
</g>
<g>
</g>
<g>
</g>
<g>
</g>
<g>
</g>
<g>
</g>
<g>
</g>
<g>
</g>
<g>
</g>
<g>
</g>
<g>
</g>
<g>
</g>
<g>
</g>
<g>
</g>
</svg>
