<?xml version="1.0" encoding="iso-8859-1"?>
<!-- Generator: Adobe Illustrator 19.1.0, SVG Export Plug-In . SVG Version: 6.00 Build 0)  -->
<svg version="1.1" id="Capa_1" xmlns="http://www.w3.org/2000/svg" xmlns:xlink="http://www.w3.org/1999/xlink" x="0px" y="0px"
	 viewBox="0 0 64.501 64.501" style="enable-background:new 0 0 64.501 64.501;" xml:space="preserve">
<g>
	<g id="group-10svg">
		<path id="path-1" style="fill:#8B71B5;" d="M8.7,31.75h55.801c0,0-3.486,22.015-35.032,22.015h-18.17
			c-2.016,0-3.746-1.472-4.124-3.454L4.576,36.697C4.084,34.108,6.066,31.75,8.7,31.75z"/>
		<path id="path-2" style="fill:#53ECF4;" d="M17.509,31.75h36.749c0,0-2.295-18.013-23.072-18.013H19.221
			c-1.328,0-2.468,1.053-2.716,2.358l-1.712,12.257C14.469,30.057,15.774,31.75,17.509,31.75z"/>
		<path id="path-3" style="fill:#EDC951;" d="M47.585,19.982l-17.757-0.881c-2.318,0-4.615,1.857-4.615,4.177v6.47h26.372
			C51.585,29.748,53.085,22.608,47.585,19.982z"/>
		<path id="path-4" d="M26.469,53.765H8.299c-2.799,0-5.101-1.819-5.598-4.423L0.102,35.6c-0.322-1.696,0.129-3.439,1.24-4.781
			c1.088-1.317,2.676-2.072,4.358-2.072h55.801c0.438,0,0.855,0.193,1.14,0.527c0.286,0.333,0.41,0.776,0.341,1.21
			C62.945,30.716,58.921,53.765,26.469,53.765z M5.7,31.75c-0.784,0-1.53,0.358-2.047,0.983c-0.539,0.651-0.759,1.492-0.603,2.307
			l2.598,13.741c0.23,1.203,1.271,1.982,2.651,1.982h18.17c24.986,0,31.561-13.991,33.116-19.013H5.7z"/>
		<path id="path-5" d="M51.259,31.75h-36.75c-1.279,0-2.477-0.564-3.289-1.546c-0.811-0.98-1.138-2.258-0.901-3.509l1.7-12.061
			c0.37-1.953,2.035-3.899,4.201-3.899h11.966c21.845,0,24.536,19.13,24.561,19.323c0.054,0.429-0.078,0.859-0.362,1.182
			C52.099,31.564,51.689,31.75,51.259,31.75z M16.22,13.737c-0.494,0-1.109,0.687-1.242,1.388l-1.7,12.06
			c-0.107,0.576,0.112,0.936,0.252,1.105c0.142,0.171,0.457,0.457,0.979,0.457h34.905c-1.132-4.266-5.54-15.01-21.228-15.01H16.22z"
			/>
		<path id="path-6" d="M25.713,31.249c-0.828,0-1.5-0.672-1.5-1.501v-6.47c0-3.024,2.534-6.539,5.801-6.539h14.199
			c0.828,0,1.5,0.672,1.5,1.501s-0.672,1.501-1.5,1.501H30.014c-1.309,0-2.801,1.885-2.801,3.537v6.47
			C27.213,30.577,26.541,31.249,25.713,31.249z"/>
		<path id="path-7" d="M35.713,31.249c-0.828,0-1.5-0.672-1.5-1.501V18.74c0-0.829,0.672-1.501,1.5-1.501
			c0.828,0,1.5,0.672,1.5,1.501v11.008C37.213,30.577,36.541,31.249,35.713,31.249z"/>
		<path id="path-8" d="M35.213,26.746h-9c-0.828,0-1.5-0.672-1.5-1.501c0-0.829,0.672-1.501,1.5-1.501h9
			c0.828,0,1.5,0.672,1.5,1.501C36.713,26.074,36.041,26.746,35.213,26.746z"/>
	</g>
</g>
<g>
</g>
<g>
</g>
<g>
</g>
<g>
</g>
<g>
</g>
<g>
</g>
<g>
</g>
<g>
</g>
<g>
</g>
<g>
</g>
<g>
</g>
<g>
</g>
<g>
</g>
<g>
</g>
<g>
</g>
</svg>
