<?xml version="1.0" encoding="iso-8859-1"?>
<!-- Generator: Adobe Illustrator 19.1.0, SVG Export Plug-In . SVG Version: 6.00 Build 0)  -->
<svg version="1.1" id="Capa_1" xmlns="http://www.w3.org/2000/svg" xmlns:xlink="http://www.w3.org/1999/xlink" x="0px" y="0px"
	 viewBox="0 0 63.545 63.545" style="enable-background:new 0 0 63.545 63.545;" xml:space="preserve">
<g>
	<g id="group-7svg">
		<path id="path-1_37_" style="fill:#53ECF4;" d="M45.772,46.033c0,2.21-1.791,4.003-4,4.003h-16c-2.209,0-4-1.793-4-4.003V8.006
			c0-2.211,1.791-4.003,4-4.003h16c2.209,0,4,1.792,4,4.003V46.033z"/>
		<path id="path-2_37_" style="fill:#EDC951;" d="M38.978,39.485c0,2.426-1.966,4.394-4.391,4.394c-2.425,0-4.391-1.968-4.391-4.394
			c0-2.427,1.966-4.394,4.391-4.394C37.012,35.091,38.978,37.058,38.978,39.485z"/>
		<path id="path-3_35_" style="fill:#81BDA4;" d="M38.978,26.732c0,2.427-1.966,4.394-4.391,4.394c-2.425,0-4.391-1.967-4.391-4.394
			c0-2.426,1.966-4.394,4.391-4.394C37.012,22.338,38.978,24.306,38.978,26.732z"/>
		<path id="path-4_35_" style="fill:#E56A77;" d="M38.978,13.98c0,2.427-1.966,4.394-4.391,4.394c-2.425,0-4.391-1.967-4.391-4.394
			s1.966-4.394,4.391-4.394C37.012,9.586,38.978,11.553,38.978,13.98z"/>
		<path id="path-5_35_" d="M31.587,30.626c-3.249,0-5.891-2.644-5.891-5.895s2.642-5.895,5.891-5.895
			c3.248,0,5.891,2.644,5.891,5.895S34.834,30.626,31.587,30.626z M31.587,21.838c-1.594,0-2.891,1.298-2.891,2.893
			s1.297,2.893,2.891,2.893s2.891-1.298,2.891-2.893S33.181,21.838,31.587,21.838z"/>
		<path id="path-6_33_" d="M31.587,43.378c-3.249,0-5.891-2.644-5.891-5.895c0-3.25,2.642-5.895,5.891-5.895
			c3.248,0,5.891,2.645,5.891,5.895C37.478,40.734,34.834,43.378,31.587,43.378z M31.587,34.59c-1.594,0-2.891,1.298-2.891,2.893
			c0,1.595,1.297,2.893,2.891,2.893s2.891-1.298,2.891-2.893C34.478,35.888,33.181,34.59,31.587,34.59z"/>
		<path id="path-7_32_" d="M39.272,49.035h-16c-3.032,0-5.5-2.469-5.5-5.504V5.504c0-3.035,2.468-5.504,5.5-5.504h16
			c3.032,0,5.5,2.469,5.5,5.504v38.027C44.772,46.566,42.305,49.035,39.272,49.035z M23.272,3.002c-1.379,0-2.5,1.123-2.5,2.502
			v38.027c0,1.38,1.121,2.502,2.5,2.502h16c1.379,0,2.5-1.122,2.5-2.502V5.504c0-1.379-1.121-2.502-2.5-2.502H23.272z"/>
		<path id="path-8_30_" d="M31.587,17.873c-3.249,0-5.891-2.644-5.891-5.894c0-3.251,2.642-5.896,5.891-5.896
			c3.248,0,5.891,2.645,5.891,5.896C37.478,15.229,34.834,17.873,31.587,17.873z M31.587,9.085c-1.594,0-2.891,1.298-2.891,2.894
			c0,1.595,1.297,2.892,2.891,2.892s2.891-1.297,2.891-2.892C34.478,10.383,33.181,9.085,31.587,9.085z"/>
		<path id="path-9_25_" d="M31.587,30.626c-3.249,0-5.891-2.644-5.891-5.895s2.642-5.895,5.891-5.895
			c3.248,0,5.891,2.644,5.891,5.895S34.834,30.626,31.587,30.626z M31.587,21.838c-1.594,0-2.891,1.298-2.891,2.893
			s1.297,2.893,2.891,2.893s2.891-1.298,2.891-2.893S33.181,21.838,31.587,21.838z"/>
		<path id="path-10_21_" d="M31.272,63.545c-1.381,0-2.5-1.12-2.5-2.501V49.035c0-1.382,1.119-2.502,2.5-2.502
			c1.381,0,2.5,1.12,2.5,2.502v12.009C33.772,62.425,32.653,63.545,31.272,63.545z"/>
	</g>
</g>
<g>
</g>
<g>
</g>
<g>
</g>
<g>
</g>
<g>
</g>
<g>
</g>
<g>
</g>
<g>
</g>
<g>
</g>
<g>
</g>
<g>
</g>
<g>
</g>
<g>
</g>
<g>
</g>
<g>
</g>
</svg>
