<?xml version="1.0" encoding="iso-8859-1"?>
<!-- Generator: Adobe Illustrator 19.1.0, SVG Export Plug-In . SVG Version: 6.00 Build 0)  -->
<svg version="1.1" id="Capa_1" xmlns="http://www.w3.org/2000/svg" xmlns:xlink="http://www.w3.org/1999/xlink" x="0px" y="0px"
	 viewBox="0 0 63.573 63.573" style="enable-background:new 0 0 63.573 63.573;" xml:space="preserve">
<g>
	<g id="group-7svg">
		<path id="path-1_27_" style="fill:#53ECF4;" d="M52.054,39.286l-8.105-7.787c-0.839-0.842-0.242-1.926,0.947-1.926H48.9
			c1.194,0,1.789-1.804,0.941-2.644l-7.535-7.763c-0.849-0.84-0.254-2.593,0.94-2.593h1.838c1.19,0,1.787-1.312,0.945-2.154
			L35.481,3.936c-0.521-0.522-1.368-0.49-1.889,0.032L23.044,14.403c-0.842,0.842-0.245,2.17,0.945,2.17h1.838
			c1.194,0,1.789,1.574,0.94,2.415l-7.535,7.877c-0.848,0.841-0.254,2.708,0.941,2.708h4.003c1.189,0,1.787,1.08,0.947,1.924
			l-8.104,7.967c-0.839,0.843-0.242,2.109,0.948,2.109h33.139C52.296,41.573,52.893,40.129,52.054,39.286z"/>
		<path id="path-2_27_" style="fill:#EDC951;" d="M31.612,63.573h4.128c1.245,0,1.537-1.083,1.537-2.328V41.573h-8v19.935
			C29.277,62.613,30.508,63.573,31.612,63.573z"/>
		<path id="path-3_27_" d="M47.106,40.573H13.967c-1.19,0-2.229-0.653-2.648-1.662c-0.405-0.975-0.161-2.079,0.638-2.88l7.705-7.458
			h-3.489c-1.137,0-2.13-0.699-2.593-1.824c-0.485-1.181-0.251-2.485,0.597-3.325l7.515-7.732c-0.008-0.005-0.024-0.064-0.047-0.119
			h-1.656c-1.194,0-2.235-0.649-2.651-1.653c-0.4-0.965-0.153-2.061,0.645-2.859L28.548,0.828c1.051-1.054,2.947-1.126,3.995-0.077
			L43.08,11.098c0.804,0.805,1.053,1.888,0.659,2.839c-0.412,0.994-1.454,1.636-2.655,1.636h-1.646
			c-0.027,0.075-0.042,0.175-0.026,0.225l7.514,7.846c0.8,0.791,1.043,2.038,0.587,3.145c-0.446,1.084-1.471,1.784-2.613,1.784
			h-3.369l7.57,7.389c0.818,0.822,1.061,1.939,0.649,2.932C49.326,39.914,48.288,40.573,47.106,40.573z M14.681,37.569l31.775,0.004
			l-7.555-7.375c-0.819-0.823-1.06-1.945-0.645-2.942c0.425-1.023,1.462-1.683,2.641-1.683h3.723l-7.399-7.746
			c-0.819-0.809-1.052-2.19-0.552-3.407c0.469-1.139,1.456-1.847,2.577-1.847h1.053l-9.728-9.554l-9.836,9.55l1.092,0.004
			c1.127,0,2.116,0.704,2.583,1.839c0.499,1.213,0.269,2.545-0.587,3.392l-7.515,7.732c0.015-0.006,0.019,0.013,0.03,0.037h3.838
			c1.164,0,2.196,0.675,2.63,1.72c0.432,1.04,0.194,2.194-0.621,3.012L14.681,37.569z"/>
		<path id="path-4_26_" d="M31.74,62.573h-4.128c-2.026,0-3.335-1.203-3.335-3.065V39.073c0-0.829,0.672-1.5,1.5-1.5h8
			c0.828,0,1.5,0.671,1.5,1.5v20.172C35.277,61.267,33.889,62.573,31.74,62.573z M27.278,59.542
			c0.066,0.015,0.172,0.031,0.334,0.031h4.128c0.32,0,0.478-0.063,0.511-0.088c-0.003-0.002,0.026-0.072,0.026-0.24V40.573h-5
			v18.935C27.277,59.521,27.277,59.532,27.278,59.542z"/>
	</g>
</g>
<g>
</g>
<g>
</g>
<g>
</g>
<g>
</g>
<g>
</g>
<g>
</g>
<g>
</g>
<g>
</g>
<g>
</g>
<g>
</g>
<g>
</g>
<g>
</g>
<g>
</g>
<g>
</g>
<g>
</g>
</svg>
