<?xml version="1.0" encoding="iso-8859-1"?>
<!-- Generator: Adobe Illustrator 19.1.0, SVG Export Plug-In . SVG Version: 6.00 Build 0)  -->
<svg version="1.1" id="Capa_1" xmlns="http://www.w3.org/2000/svg" xmlns:xlink="http://www.w3.org/1999/xlink" x="0px" y="0px"
	 viewBox="0 0 64.632 64.632" style="enable-background:new 0 0 64.632 64.632;" xml:space="preserve">
<g>
	<g id="group-29svg">
		<path id="path-1_20_" style="fill:#99746A;" d="M54.97,43.003h5.5c0.176,0,1.003-0.079,1.174-0.099
			c2.857-0.332,3.708-4.052,2.369-6.599l-8.97-16.997c-0.77-1.464-2.287-2.324-3.941-2.324H9.286c-0.854,0-1.68,0.055-2.422,0.414
			c-1.605,0.776-2.493,2.469-2.341,4.247l1.403,16.597c0,2.461,1.993,4.761,4.452,4.761h4.592l0,0"/>
		<path id="path-2_20_" style="fill:#53ECF4;" d="M54.333,44.231c0,2.441-1.979,4.42-4.418,4.42c-2.439,0-4.417-1.979-4.417-4.42
			c0-2.442,1.978-4.421,4.417-4.421C52.354,39.81,54.333,41.789,54.333,44.231z"/>
		<path id="path-3_20_" style="fill:#53ECF4;" d="M24.277,44.231c0,2.441-1.977,4.42-4.417,4.42c-2.439,0-4.417-1.979-4.417-4.42
			c0-2.442,1.978-4.421,4.417-4.421C22.3,39.81,24.277,41.789,24.277,44.231z"/>
		<path id="path-4_20_" style="fill:#53ECF4;" d="M54.97,24.99h-12c-1.1,0-2,0.901-2,2.001v3.002c0,1.101,0.9,2.002,2,2.002h15l0,0"
			/>
		<path id="path-5_20_" d="M58.72,45.004h-5.75c-0.828,0-1.5-0.672-1.5-1.501s0.672-1.501,1.5-1.501h5.75
			c0.499,0,0.823-0.184,1.084-0.616c0.613-1.017,0.559-2.967-0.119-4.257L50.72,20.328c-0.615-1.169-1.904-1.342-2.617-1.342
			L5.995,18.985c-0.555-0.004-1.4-0.009-1.75,0.16c-0.643,0.312-1.366,0.877-1.227,2.496L4.421,38.43
			c0.003,0.041,0.005,0.083,0.005,0.125c0,1.771,1.434,3.447,2.952,3.447h5.592c0.828,0,1.5,0.672,1.5,1.501s-0.672,1.501-1.5,1.501
			H7.378c-3.15,0-5.916-2.975-5.952-6.382L0.028,21.895c-0.214-2.504,0.82-4.441,2.912-5.453c0.977-0.472,2.139-0.465,3.074-0.459
			l0.272,0.001h41.817c2.366,0,4.286,1.071,5.267,2.938l8.965,16.801c1.017,1.936,1.354,5.03,0.037,7.215
			C61.568,44.27,60.271,45.004,58.72,45.004z"/>
		<path id="path-6_19_" d="M41.97,44.003h-19c-0.828,0-1.5-0.671-1.5-1.501c0-0.829,0.672-1.501,1.5-1.501h19
			c0.828,0,1.5,0.672,1.5,1.501C43.47,43.332,42.798,44.003,41.97,44.003z"/>
		<path id="path-7_19_" d="M47.915,48.15c-3.263,0-5.917-2.656-5.917-5.921c0-3.265,2.654-5.921,5.917-5.921
			c3.263,0,5.918,2.656,5.918,5.921C53.833,45.494,51.178,48.15,47.915,48.15z M47.915,39.31c-1.608,0-2.917,1.309-2.917,2.919
			c0,1.61,1.309,2.919,2.917,2.919c1.609,0,2.918-1.309,2.918-2.919C50.833,40.619,49.524,39.31,47.915,39.31z"/>
		<path id="path-8_18_" d="M17.86,48.15c-3.262,0-5.917-2.656-5.917-5.921c0-3.265,2.655-5.921,5.917-5.921
			c3.263,0,5.917,2.656,5.917,5.921C23.777,45.494,21.123,48.15,17.86,48.15z M17.86,39.31c-1.608,0-2.917,1.309-2.917,2.919
			c0,1.61,1.309,2.919,2.917,2.919c1.609,0,2.917-1.309,2.917-2.919C20.777,40.619,19.469,39.31,17.86,39.31z"/>
		<path id="path-9_16_" d="M55.97,30.994h-14.5c-1.93,0-3.5-1.571-3.5-3.502V24.49c0-1.931,1.57-3.503,3.5-3.503h11.5
			c0.828,0,1.5,0.672,1.5,1.501s-0.672,1.501-1.5,1.501h-11.5c-0.272,0-0.5,0.229-0.5,0.501v3.002c0,0.276,0.224,0.5,0.5,0.5h14.5
			c0.828,0,1.5,0.672,1.5,1.501C57.47,30.322,56.798,30.994,55.97,30.994z"/>
		<path id="path-10_14_" d="M10.897,42.417c-0.754,0-1.405-0.569-1.489-1.339L6.876,17.865c-0.09-0.824,0.505-1.565,1.328-1.655
			c0.824-0.089,1.565,0.505,1.654,1.329l2.533,23.214c0.089,0.824-0.505,1.565-1.328,1.655
			C11.007,42.414,10.952,42.417,10.897,42.417z"/>
	</g>
</g>
<g>
</g>
<g>
</g>
<g>
</g>
<g>
</g>
<g>
</g>
<g>
</g>
<g>
</g>
<g>
</g>
<g>
</g>
<g>
</g>
<g>
</g>
<g>
</g>
<g>
</g>
<g>
</g>
<g>
</g>
</svg>
