<?xml version="1.0" encoding="iso-8859-1"?>
<!-- Generator: Adobe Illustrator 19.1.0, SVG Export Plug-In . SVG Version: 6.00 Build 0)  -->
<svg version="1.1" id="Capa_1" xmlns="http://www.w3.org/2000/svg" xmlns:xlink="http://www.w3.org/1999/xlink" x="0px" y="0px"
	 viewBox="0 0 65 65" style="enable-background:new 0 0 65 65;" xml:space="preserve">
<g>
	<g id="group-23svg">
		<path id="path-1_14_" style="fill:#99746A;" d="M9.4,48.691c-2.166-0.297-4.4-2.47-4.4-4.72V18.025c0-2.211,1.791-4.003,4-4.003
			h41.591c1.873,0,3.546,0.584,4.181,2.347l3.287,8.828c0.362,1.005,1.074,1.698,2.004,2.221l2.859,1.639
			C64.323,29.844,65,31.253,65,32.861v12.183c0,2.211-1.791,4.003-4,4.003h-2l0,0"/>
		<path id="path-2_14_" style="fill:#E56A77;" d="M56.659,48.882c0,2.539-2.057,4.597-4.594,4.597c-2.538,0-4.594-2.058-4.594-4.597
			c0-2.539,2.056-4.597,4.594-4.597C54.602,44.285,56.659,46.343,56.659,48.882z"/>
		<path id="path-3_14_" style="fill:#E56A77;" d="M17.77,48.882c0,2.539-2.057,4.597-4.594,4.597s-4.594-2.058-4.594-4.597
			c0-2.539,2.057-4.597,4.594-4.597S17.77,46.343,17.77,48.882z"/>
		<path id="path-4_14_" style="fill:#EDC951;" d="M63,40.041H44V28.032h10.63c4.418,0,8.37,3.121,8.37,7.542V40.041z"/>
		<path id="path-5_14_" d="M43,49.047H15c-0.829,0-1.5-0.672-1.5-1.501c0-0.829,0.671-1.501,1.5-1.501h28
			c0.829,0,1.5,0.672,1.5,1.501C44.5,48.375,43.829,49.047,43,49.047z"/>
		<path id="path-6_13_" d="M57.5,49.047H55c-0.829,0-1.5-0.672-1.5-1.501c0-0.829,0.671-1.501,1.5-1.501h2.5
			c1.378,0,2.5-1.123,2.5-2.502V31.86c0-1.016-0.599-1.984-1.563-2.526l-3.083-1.657c-1.314-0.738-2.241-1.804-2.706-3.098
			l-3.284-8.943c-0.525-1.457-2.114-1.614-2.773-1.614H5.5c-1.378,0-2.5,1.123-2.5,2.502V42.97c0,1.551,1.476,2.794,2.854,2.983
			c0.821,0.113,1.395,0.87,1.283,1.692c-0.113,0.821-0.871,1.396-1.69,1.283C2.443,48.516,0,45.844,0,42.97V16.524
			c0-3.035,2.467-5.504,5.5-5.504h41.091c2.692,0,4.782,1.342,5.592,3.59l3.284,8.943c0.224,0.622,0.671,1.122,1.331,1.493
			l3.083,1.657C61.814,27.789,63,29.76,63,31.86v11.683C63,46.578,60.533,49.047,57.5,49.047z"/>
		<path id="path-7_13_" d="M49.065,53.98c-3.36,0-6.094-2.736-6.094-6.099c0-3.362,2.734-6.098,6.094-6.098
			c3.36,0,6.094,2.736,6.094,6.098C55.159,51.244,52.425,53.98,49.065,53.98z M49.065,44.785c-1.706,0-3.094,1.389-3.094,3.096
			c0,1.708,1.388,3.097,3.094,3.097c1.706,0,3.094-1.389,3.094-3.097C52.159,46.174,50.771,44.785,49.065,44.785z"/>
		<path id="path-8_12_" d="M10.176,53.98c-3.361,0-6.095-2.736-6.095-6.099c0-3.362,2.734-6.098,6.095-6.098
			c3.36,0,6.094,2.736,6.094,6.098C16.27,51.244,13.536,53.98,10.176,53.98z M10.176,44.785c-1.706,0-3.094,1.389-3.094,3.096
			c0,1.708,1.388,3.097,3.094,3.097s3.094-1.389,3.094-3.097C13.27,46.174,11.882,44.785,10.176,44.785z"/>
		<path id="path-9_10_" d="M40.5,39.54c-0.829,0-1.5-0.672-1.5-1.501V13.021c0-0.829,0.671-1.501,1.5-1.501s1.5,0.672,1.5,1.501
			v25.018C42,38.868,41.329,39.54,40.5,39.54z"/>
		<path id="path-10_9_" d="M61,40.041H2c-0.829,0-1.5-0.672-1.5-1.501c0-0.83,0.671-1.502,1.5-1.502h59c0.829,0,1.5,0.672,1.5,1.502
			C62.5,39.369,61.829,40.041,61,40.041z"/>
		<path id="path-11_9_" d="M56,28.032H41c-0.829,0-1.5-0.672-1.5-1.501s0.671-1.501,1.5-1.501h15c0.829,0,1.5,0.672,1.5,1.501
			S56.829,28.032,56,28.032z"/>
	</g>
</g>
<g>
</g>
<g>
</g>
<g>
</g>
<g>
</g>
<g>
</g>
<g>
</g>
<g>
</g>
<g>
</g>
<g>
</g>
<g>
</g>
<g>
</g>
<g>
</g>
<g>
</g>
<g>
</g>
<g>
</g>
</svg>
