<?xml version="1.0" encoding="iso-8859-1"?>
<!-- Generator: Adobe Illustrator 19.1.0, SVG Export Plug-In . SVG Version: 6.00 Build 0)  -->
<svg version="1.1" id="Capa_1" xmlns="http://www.w3.org/2000/svg" xmlns:xlink="http://www.w3.org/1999/xlink" x="0px" y="0px"
	 viewBox="0 0 64 64" style="enable-background:new 0 0 64 64;" xml:space="preserve">
<g>
	<g id="group-16svg">
		<path id="path-1_6_" style="fill:#8B71B5;" d="M57,50.836h3.872c2.209,0,3.128-2.223,3.128-4.434V33.383
			c0-4.515-3.326-7.154-7.67-8.451c-0.113-0.034-0.007-0.072-0.115-0.117l-19.651-7.918c-0.482-0.199-0.89-0.085-1.412-0.085H8.872
			C6.663,16.812,4,18.174,4,20.383v26.019c0,2.202,2.672,4.434,4.872,4.434H11l0,0"/>
		<path id="path-2_6_" style="fill:#53ECF4;" d="M35,28.892v9.936h19.407c3.731,0,5.258-4.93,2.214-7.089l-15.126-5.905
			C38.039,24.133,35,25.781,35,28.892z"/>
		<path id="path-3_6_" style="fill:#EDC951;" d="M56.649,51.414c0,2.364-1.915,4.281-4.277,4.281c-2.363,0-4.278-1.917-4.278-4.281
			c0-2.364,1.915-4.28,4.278-4.28C54.734,47.133,56.649,49.049,56.649,51.414z"/>
		<path id="path-4_6_" style="fill:#EDC951;" d="M20.442,51.414c0,2.364-1.915,4.281-4.277,4.281s-4.278-1.917-4.278-4.281
			c0-2.364,1.916-4.28,4.278-4.28S20.442,49.049,20.442,51.414z"/>
		<path id="path-5_6_" d="M57.872,50.836H54c-0.829,0-1.5-0.672-1.5-1.501c0-0.83,0.671-1.501,1.5-1.501h3.872
			c1.57,0,2.128-1.31,2.128-2.433V32.383c0-4.106-3.725-6.08-6.849-7.014c-0.208-0.061-0.357-0.141-0.442-0.191l-19.656-8.145
			c-0.376-0.155-0.646-0.221-0.901-0.221H5.872C4.422,16.812,3,18.085,3,19.383v26.018c0,1.37,1.543,2.433,2.872,2.433H8
			c0.829,0,1.5,0.671,1.5,1.501c0,0.829-0.671,1.501-1.5,1.501H5.872C2.689,50.836,0,48.347,0,45.402V19.383
			c0-2.969,2.744-5.574,5.872-5.574h26.28c0.848,0,1.538,0.24,2.046,0.449l19.716,8.169c0.084,0.035,0.151,0.068,0.21,0.101
			C59.849,24.272,63,27.768,63,32.383v13.018C63,48.55,60.843,50.836,57.872,50.836z"/>
		<path id="path-6_6_" d="M44,50.836H18c-0.829,0-1.5-0.672-1.5-1.501c0-0.83,0.671-1.501,1.5-1.501h26c0.829,0,1.5,0.671,1.5,1.501
			C45.5,50.165,44.829,50.836,44,50.836z"/>
		<path id="path-7_6_" d="M49.372,56.194c-3.186,0-5.778-2.594-5.778-5.781c0-3.188,2.592-5.782,5.778-5.782
			c3.185,0,5.777,2.594,5.777,5.782C55.149,53.6,52.557,56.194,49.372,56.194z M49.372,47.633c-1.532,0-2.778,1.247-2.778,2.78
			c0,1.532,1.246,2.779,2.778,2.779c1.531,0,2.777-1.247,2.777-2.779C52.149,48.881,50.903,47.633,49.372,47.633z"/>
		<path id="path-8_5_" d="M13.165,56.194c-3.186,0-5.778-2.594-5.778-5.781c0-3.188,2.592-5.782,5.778-5.782
			c3.185,0,5.777,2.594,5.777,5.782C18.942,53.6,16.35,56.194,13.165,56.194z M13.165,47.633c-1.532,0-2.778,1.247-2.778,2.78
			c0,1.532,1.246,2.779,2.778,2.779c1.531,0,2.777-1.247,2.777-2.779C15.942,48.881,14.696,47.633,13.165,47.633z"/>
		<path id="path-9_4_" d="M60,41.829h-3c-0.829,0-1.5-0.672-1.5-1.501c0-0.829,0.671-1.501,1.5-1.501h3c0.829,0,1.5,0.672,1.5,1.501
			C61.5,41.158,60.829,41.829,60,41.829z"/>
		<path id="path-10_4_" d="M23,38.827h-3c-0.829,0-1.5-0.672-1.5-1.501s0.671-1.501,1.5-1.501h3c0.829,0,1.5,0.672,1.5,1.501
			S23.829,38.827,23,38.827z"/>
		<path id="path-11_4_" d="M51.407,38.827H32.5c-0.829,0-1.5-0.672-1.5-1.501V27.89c0-3.096,2.172-5.343,5.164-5.343
			c1.035,0,2.105,0.263,3.182,0.783l14.818,5.757c0.115,0.045,0.224,0.104,0.325,0.175c1.921,1.363,2.706,3.674,2.001,5.888
			C55.779,37.384,53.784,38.827,51.407,38.827z M34,35.826h17.407c1.268,0,1.981-0.819,2.225-1.586
			c0.112-0.351,0.375-1.533-0.745-2.427l-14.684-5.706c-0.04-0.015-0.08-0.032-0.119-0.051c-0.672-0.331-1.336-0.506-1.92-0.506
			c-1.335,0-2.164,0.897-2.164,2.341V35.826z"/>
		<path id="path-12_4_" d="M32.5,16.312c-0.829,0-1.5-0.672-1.5-1.501v-1.431c0-1.239-0.666-2.572-2.128-2.572H11
			c-0.829,0-1.5-0.671-1.5-1.501c0-0.829,0.671-1.501,1.5-1.501h17.872c2.923,0,5.128,2.396,5.128,5.574v1.431
			C34,15.639,33.329,16.312,32.5,16.312z"/>
	</g>
</g>
<g>
</g>
<g>
</g>
<g>
</g>
<g>
</g>
<g>
</g>
<g>
</g>
<g>
</g>
<g>
</g>
<g>
</g>
<g>
</g>
<g>
</g>
<g>
</g>
<g>
</g>
<g>
</g>
<g>
</g>
</svg>
