<?xml version="1.0" encoding="iso-8859-1"?>
<!-- Generator: Adobe Illustrator 19.1.0, SVG Export Plug-In . SVG Version: 6.00 Build 0)  -->
<svg version="1.1" id="Capa_1" xmlns="http://www.w3.org/2000/svg" xmlns:xlink="http://www.w3.org/1999/xlink" x="0px" y="0px"
	 viewBox="0 0 65.068 65.068" style="enable-background:new 0 0 65.068 65.068;" xml:space="preserve">
<g>
	<g id="group-11svg">
		<path id="path-1_1_" style="fill:#8B71B5;" d="M56.693,34.897c0-5.788-2.095-11.028-6.095-14.842v-10.9
			c0-2.369-1.047-4.15-3.414-4.15H25.755c-2.367,0-5.157,1.781-5.157,4.15v10.9c-3,3.814-6.096,9.054-6.096,14.842
			c0,5.787,3.096,11.027,6.096,14.842v10.899c0,2.369,2.79,4.43,5.157,4.43h21.429c2.367,0,3.414-2.061,3.414-4.43V49.739
			C54.598,45.924,56.693,40.684,56.693,34.897z"/>
		<path id="path-2_1_" style="fill:#53ECF4;" d="M57.566,34.897c0,11.663-9.446,21.118-21.096,21.118
			c-11.652,0-21.097-9.455-21.097-21.118c0-11.664,9.445-21.119,21.097-21.119C48.12,13.778,57.566,23.233,57.566,34.897z"/>
		<path id="path-3_1_" style="fill:#EDC951;" d="M51.586,34.897c0,8.357-6.769,15.132-15.116,15.132
			c-8.349,0-15.116-6.775-15.116-15.132s6.767-15.132,15.116-15.132C44.817,19.765,51.586,26.54,51.586,34.897z"/>
		<path id="path-4_1_" d="M30.47,54.513c-12.46,0-22.597-10.148-22.597-22.62S18.01,9.274,30.47,9.274
			c12.459,0,22.596,10.147,22.596,22.619S42.929,54.513,30.47,54.513z M30.47,12.277c-10.806,0-19.597,8.8-19.597,19.616
			S19.664,51.51,30.47,51.51c10.804,0,19.595-8.801,19.595-19.617S41.274,12.277,30.47,12.277z"/>
		<path id="path-5_1_" d="M41.184,63.066H19.755c-3.026,0-6.157-2.032-6.157-5.431V47.25c-4.046-5.271-6.096-10.434-6.096-15.357
			c0-4.922,2.05-10.085,6.096-15.356V6.153c0-3.22,2.934-6.153,6.157-6.153h21.429c3.388,0,5.414,3.128,5.414,6.153v10.269
			c3.936,4,6.095,9.467,6.095,15.471c0,6.005-2.159,11.471-6.095,15.472v10.27C46.598,60.833,44.371,63.066,41.184,63.066z
			 M19.755,3.003c-1.534,0-3.157,1.619-3.157,3.15v10.899c0,0.337-0.114,0.664-0.322,0.928c-3.832,4.873-5.774,9.553-5.774,13.913
			s1.942,9.041,5.774,13.913c0.208,0.265,0.322,0.592,0.322,0.929v10.9c0,1.5,1.638,2.427,3.157,2.427h21.429
			c1.534,0,2.414-0.884,2.414-2.427v-10.9c0-0.411,0.168-0.804,0.466-1.087c3.629-3.463,5.629-8.348,5.629-13.755
			s-2-10.292-5.629-13.754c-0.298-0.284-0.466-0.677-0.466-1.087V6.153c0-1.516-0.923-3.15-2.414-3.15H19.755z"/>
		<path id="path-6_1_" d="M30.47,48.527c-9.162,0-16.616-7.462-16.616-16.634c0-9.171,7.454-16.633,16.616-16.633
			s16.616,7.462,16.616,16.633C47.086,41.065,39.632,48.527,30.47,48.527z M30.47,18.263c-7.508,0-13.616,6.115-13.616,13.63
			c0,7.516,6.108,13.631,13.616,13.631s13.616-6.115,13.616-13.631C44.086,24.378,37.978,18.263,30.47,18.263z"/>
		<path id="path-7_1_" d="M30.47,54.513c-12.46,0-22.597-10.148-22.597-22.62S18.01,9.274,30.47,9.274
			c12.459,0,22.596,10.147,22.596,22.619S42.929,54.513,30.47,54.513z M30.47,12.277c-10.806,0-19.597,8.8-19.597,19.616
			S19.664,51.51,30.47,51.51c10.804,0,19.595-8.801,19.595-19.617S41.274,12.277,30.47,12.277z"/>
		<path id="path-8" d="M30.098,36.076c-0.217,0-0.435-0.046-0.639-0.142c-0.525-0.248-0.861-0.777-0.861-1.359v-9.549
			c0-0.829,0.672-1.502,1.5-1.502c0.828,0,1.5,0.673,1.5,1.502v6.356l5.044-4.182c0.639-0.529,1.584-0.438,2.112,0.198
			c0.528,0.64,0.439,1.586-0.198,2.115l-7.501,6.218C30.78,35.959,30.441,36.076,30.098,36.076z"/>
	</g>
</g>
<g>
</g>
<g>
</g>
<g>
</g>
<g>
</g>
<g>
</g>
<g>
</g>
<g>
</g>
<g>
</g>
<g>
</g>
<g>
</g>
<g>
</g>
<g>
</g>
<g>
</g>
<g>
</g>
<g>
</g>
</svg>
